{
    "asset" : {
        "generator" : "Khronos glTF Blender I/O v1.1.45",
        "version" : "2.0"
    },
    "scene" : 0,
    "scenes" : [
        {
            "name" : "Scene",
            "nodes" : [
                0,
                1
            ]
        }
    ],
    "nodes" : [
        {
            "mesh" : 0,
            "name" : "polySurface62",
            "rotation" : [
                0.7071067690849304,
                0,
                0,
                0.7071067690849304
            ],
            "scale" : [
                0.5,
                0.5,
                0.5
            ]
        },
        {
            "name" : "transform4"
        }
    ],
    "materials" : [
        {
            "doubleSided" : true,
            "emissiveFactor" : [
                0,
                0,
                0
            ],
            "name" : "blinn1",
            "pbrMetallicRoughness" : {
                "metallicFactor" : 0.7342657446861267,
                "roughnessFactor" : 0.5156044363975525
            }
        },
        {
            "doubleSided" : true,
            "emissiveFactor" : [
                0,
                0,
                0
            ],
            "name" : "lambert1",
            "pbrMetallicRoughness" : {
                "baseColorFactor" : [
                    0.7617999911308289,
                    0.1088000014424324,
                    0.47760000824928284,
                    1
                ],
                "metallicFactor" : 1,
                "roughnessFactor" : 0.5527864098548889
            }
        }
    ],
    "meshes" : [
        {
            "name" : "Mesh",
            "primitives" : [
                {
                    "attributes" : {
                        "POSITION" : 0,
                        "NORMAL" : 1,
                        "TEXCOORD_0" : 2
                    },
                    "indices" : 3,
                    "material" : 0
                },
                {
                    "attributes" : {
                        "POSITION" : 4,
                        "NORMAL" : 5,
                        "TEXCOORD_0" : 6
                    },
                    "indices" : 7,
                    "material" : 1
                }
            ]
        }
    ],
    "accessors" : [
        {
            "bufferView" : 0,
            "componentType" : 5126,
            "count" : 1941,
            "max" : [
                5.090950965881348,
                5.0909504890441895,
                0
            ],
            "min" : [
                -5.090951919555664,
                -5.090954303741455,
                -4.8290863037109375
            ],
            "type" : "VEC3"
        },
        {
            "bufferView" : 1,
            "componentType" : 5126,
            "count" : 1941,
            "type" : "VEC3"
        },
        {
            "bufferView" : 2,
            "componentType" : 5126,
            "count" : 1941,
            "type" : "VEC2"
        },
        {
            "bufferView" : 3,
            "componentType" : 5123,
            "count" : 4200,
            "type" : "SCALAR"
        },
        {
            "bufferView" : 4,
            "componentType" : 5126,
            "count" : 8192,
            "max" : [
                2.4418275356292725,
                3.843270778656006,
                -0.5714561939239502
            ],
            "min" : [
                -3.7321603298187256,
                -4.075191020965576,
                -2.941885232925415
            ],
            "type" : "VEC3"
        },
        {
            "bufferView" : 5,
            "componentType" : 5126,
            "count" : 8192,
            "type" : "VEC3"
        },
        {
            "bufferView" : 6,
            "componentType" : 5126,
            "count" : 8192,
            "type" : "VEC2"
        },
        {
            "bufferView" : 7,
            "componentType" : 5123,
            "count" : 18582,
            "type" : "SCALAR"
        }
    ],
    "bufferViews" : [
        {
            "buffer" : 0,
            "byteLength" : 23292,
            "byteOffset" : 0
        },
        {
            "buffer" : 0,
            "byteLength" : 23292,
            "byteOffset" : 23292
        },
        {
            "buffer" : 0,
            "byteLength" : 15528,
            "byteOffset" : 46584
        },
        {
            "buffer" : 0,
            "byteLength" : 8400,
            "byteOffset" : 62112
        },
        {
            "buffer" : 0,
            "byteLength" : 98304,
            "byteOffset" : 70512
        },
        {
            "buffer" : 0,
            "byteLength" : 98304,
            "byteOffset" : 168816
        },
        {
            "buffer" : 0,
            "byteLength" : 65536,
            "byteOffset" : 267120
        },
        {
            "buffer" : 0,
            "byteLength" : 37164,
            "byteOffset" : 332656
        }
    ],
    "buffers" : [
        {
            "byteLength" : 369820,
            "uri" : "data:application/octet-stream;base64,"
        }
    ]
}
