{
    "asset" : {
        "generator" : "Khronos glTF Blender I/O v1.1.45",
        "version" : "2.0"
    },
    "scene" : 0,
    "scenes" : [
        {
            "name" : "Scene",
            "nodes" : [
                0
            ]
        }
    ],
    "nodes" : [
        {
            "mesh" : 0,
            "name" : "pCube72",
            "rotation" : [
                0.7071068286895752,
                0,
                0,
                0.7071067094802856
            ],
            "scale" : [
                0.009999999776482582,
                0.009999999776482582,
                0.016082478687167168
            ],
            "translation" : [
                0.28216788172721863,
                0.05790079012513161,
                0.12362360954284668
            ]
        }
    ],
    "materials" : [
        {
            "doubleSided" : true,
            "emissiveFactor" : [
                0,
                0,
                0
            ],
            "name" : "lambert1",
            "pbrMetallicRoughness" : {
                "baseColorFactor" : [
                    0.5,
                    0.5,
                    0.5,
                    1
                ],
                "metallicFactor" : 0,
                "roughnessFactor" : 0.5527864098548889
            }
        },
        {
            "doubleSided" : true,
            "emissiveFactor" : [
                0,
                0,
                0
            ],
            "name" : "lambert19",
            "pbrMetallicRoughness" : {
                "baseColorFactor" : [
                    0.23076923191547394,
                    0.23076923191547394,
                    0.23076923191547394,
                    1
                ],
                "metallicFactor" : 0,
                "roughnessFactor" : 0.5527864098548889
            }
        },
        {
            "doubleSided" : true,
            "emissiveFactor" : [
                0,
                0,
                0
            ],
            "name" : "pipe5",
            "pbrMetallicRoughness" : {
                "baseColorFactor" : [
                    1,
                    1,
                    1,
                    1
                ],
                "metallicFactor" : 0,
                "roughnessFactor" : 0.5527864098548889
            }
        },
        {
            "doubleSided" : true,
            "emissiveFactor" : [
                0.9685999751091003,
                0.14499999582767487,
                0.5214999914169312
            ],
            "name" : "pasted__Neo_Red3",
            "pbrMetallicRoughness" : {
                "baseColorFactor" : [
                    0.5,
                    0.5,
                    0.5,
                    1
                ],
                "metallicFactor" : 0,
                "roughnessFactor" : 0.5527864098548889
            }
        },
        {
            "doubleSided" : true,
            "emissiveFactor" : [
                0.25686368346214294,
                0.6793954968452454,
                0.811188817024231
            ],
            "name" : "pasted__Neo_Blue3",
            "pbrMetallicRoughness" : {
                "baseColorFactor" : [
                    0.5,
                    0.5,
                    0.5,
                    1
                ],
                "metallicFactor" : 0,
                "roughnessFactor" : 0.5527864098548889
            }
        },
        {
            "doubleSided" : true,
            "emissiveFactor" : [
                0,
                0,
                0
            ],
            "name" : "pasted__pasted__pipe3",
            "pbrMetallicRoughness" : {
                "baseColorFactor" : [
                    1,
                    1,
                    1,
                    1
                ],
                "metallicFactor" : 0,
                "roughnessFactor" : 0.5527864098548889
            }
        }
    ],
    "meshes" : [
        {
            "name" : "Mesh.190",
            "primitives" : [
                {
                    "attributes" : {
                        "POSITION" : 0,
                        "NORMAL" : 1,
                        "TEXCOORD_0" : 2
                    },
                    "indices" : 3,
                    "material" : 0
                },
                {
                    "attributes" : {
                        "POSITION" : 4,
                        "NORMAL" : 5,
                        "TEXCOORD_0" : 6
                    },
                    "indices" : 7,
                    "material" : 1
                },
                {
                    "attributes" : {
                        "POSITION" : 8,
                        "NORMAL" : 9,
                        "TEXCOORD_0" : 10
                    },
                    "indices" : 3,
                    "material" : 2
                },
                {
                    "attributes" : {
                        "POSITION" : 11,
                        "NORMAL" : 12,
                        "TEXCOORD_0" : 13
                    },
                    "indices" : 14,
                    "material" : 3
                },
                {
                    "attributes" : {
                        "POSITION" : 15,
                        "NORMAL" : 16,
                        "TEXCOORD_0" : 17
                    },
                    "indices" : 18,
                    "material" : 4
                },
                {
                    "attributes" : {
                        "POSITION" : 19,
                        "NORMAL" : 20,
                        "TEXCOORD_0" : 21
                    },
                    "indices" : 3,
                    "material" : 5
                }
            ]
        }
    ],
    "accessors" : [
        {
            "bufferView" : 0,
            "componentType" : 5126,
            "count" : 24,
            "max" : [
                0.815422773361206,
                -10.872546195983887,
                -2.043004035949707
            ],
            "min" : [
                -0.18457722663879395,
                -11.872546195983887,
                -3.043004035949707
            ],
            "type" : "VEC3"
        },
        {
            "bufferView" : 1,
            "componentType" : 5126,
            "count" : 24,
            "type" : "VEC3"
        },
        {
            "bufferView" : 2,
            "componentType" : 5126,
            "count" : 24,
            "type" : "VEC2"
        },
        {
            "bufferView" : 3,
            "componentType" : 5123,
            "count" : 36,
            "type" : "SCALAR"
        },
        {
            "bufferView" : 4,
            "componentType" : 5126,
            "count" : 92,
            "max" : [
                0.35160136222839355,
                11.418656349182129,
                3.982422351837158
            ],
            "min" : [
                -0.3766319751739502,
                -11.973836898803711,
                -3.9271483421325684
            ],
            "type" : "VEC3"
        },
        {
            "bufferView" : 5,
            "componentType" : 5126,
            "count" : 92,
            "type" : "VEC3"
        },
        {
            "bufferView" : 6,
            "componentType" : 5126,
            "count" : 92,
            "type" : "VEC2"
        },
        {
            "bufferView" : 7,
            "componentType" : 5123,
            "count" : 192,
            "type" : "SCALAR"
        },
        {
            "bufferView" : 8,
            "componentType" : 5126,
            "count" : 24,
            "max" : [
                0.5868995189666748,
                2.4185056686401367,
                3.595005512237549
            ],
            "min" : [
                0.34139323234558105,
                -11.957575798034668,
                3.442354202270508
            ],
            "type" : "VEC3"
        },
        {
            "bufferView" : 9,
            "componentType" : 5126,
            "count" : 24,
            "type" : "VEC3"
        },
        {
            "bufferView" : 10,
            "componentType" : 5126,
            "count" : 24,
            "type" : "VEC2"
        },
        {
            "bufferView" : 11,
            "componentType" : 5126,
            "count" : 573,
            "max" : [
                0.5868995189666748,
                6.848395347595215,
                0.26807498931884766
            ],
            "min" : [
                0.28540873527526855,
                -9.467025756835938,
                -3.1277003288269043
            ],
            "type" : "VEC3"
        },
        {
            "bufferView" : 12,
            "componentType" : 5126,
            "count" : 573,
            "type" : "VEC3"
        },
        {
            "bufferView" : 13,
            "componentType" : 5126,
            "count" : 573,
            "type" : "VEC2"
        },
        {
            "bufferView" : 14,
            "componentType" : 5123,
            "count" : 2712,
            "type" : "SCALAR"
        },
        {
            "bufferView" : 15,
            "componentType" : 5126,
            "count" : 72,
            "max" : [
                0.6768805980682373,
                -9.320404052734375,
                1.7769789695739746
            ],
            "min" : [
                0.23430705070495605,
                -11.941886901855469,
                0.0842287540435791
            ],
            "type" : "VEC3"
        },
        {
            "bufferView" : 16,
            "componentType" : 5126,
            "count" : 72,
            "type" : "VEC3"
        },
        {
            "bufferView" : 17,
            "componentType" : 5126,
            "count" : 72,
            "type" : "VEC2"
        },
        {
            "bufferView" : 18,
            "componentType" : 5123,
            "count" : 132,
            "type" : "SCALAR"
        },
        {
            "bufferView" : 19,
            "componentType" : 5126,
            "count" : 24,
            "max" : [
                0.5868995189666748,
                10.561692237854004,
                -3.089344024658203
            ],
            "min" : [
                0.34139323234558105,
                -11.868250846862793,
                -3.241994857788086
            ],
            "type" : "VEC3"
        },
        {
            "bufferView" : 20,
            "componentType" : 5126,
            "count" : 24,
            "type" : "VEC3"
        },
        {
            "bufferView" : 21,
            "componentType" : 5126,
            "count" : 24,
            "type" : "VEC2"
        }
    ],
    "bufferViews" : [
        {
            "buffer" : 0,
            "byteLength" : 288,
            "byteOffset" : 0
        },
        {
            "buffer" : 0,
            "byteLength" : 288,
            "byteOffset" : 288
        },
        {
            "buffer" : 0,
            "byteLength" : 192,
            "byteOffset" : 576
        },
        {
            "buffer" : 0,
            "byteLength" : 72,
            "byteOffset" : 768
        },
        {
            "buffer" : 0,
            "byteLength" : 1104,
            "byteOffset" : 840
        },
        {
            "buffer" : 0,
            "byteLength" : 1104,
            "byteOffset" : 1944
        },
        {
            "buffer" : 0,
            "byteLength" : 736,
            "byteOffset" : 3048
        },
        {
            "buffer" : 0,
            "byteLength" : 384,
            "byteOffset" : 3784
        },
        {
            "buffer" : 0,
            "byteLength" : 288,
            "byteOffset" : 4168
        },
        {
            "buffer" : 0,
            "byteLength" : 288,
            "byteOffset" : 4456
        },
        {
            "buffer" : 0,
            "byteLength" : 192,
            "byteOffset" : 4744
        },
        {
            "buffer" : 0,
            "byteLength" : 6876,
            "byteOffset" : 4936
        },
        {
            "buffer" : 0,
            "byteLength" : 6876,
            "byteOffset" : 11812
        },
        {
            "buffer" : 0,
            "byteLength" : 4584,
            "byteOffset" : 18688
        },
        {
            "buffer" : 0,
            "byteLength" : 5424,
            "byteOffset" : 23272
        },
        {
            "buffer" : 0,
            "byteLength" : 864,
            "byteOffset" : 28696
        },
        {
            "buffer" : 0,
            "byteLength" : 864,
            "byteOffset" : 29560
        },
        {
            "buffer" : 0,
            "byteLength" : 576,
            "byteOffset" : 30424
        },
        {
            "buffer" : 0,
            "byteLength" : 264,
            "byteOffset" : 31000
        },
        {
            "buffer" : 0,
            "byteLength" : 288,
            "byteOffset" : 31264
        },
        {
            "buffer" : 0,
            "byteLength" : 288,
            "byteOffset" : 31552
        },
        {
            "buffer" : 0,
            "byteLength" : 192,
            "byteOffset" : 31840
        }
    ],
    "buffers" : [
        {
            "byteLength" : 32032,
            "uri" : "data:application/octet-stream;base64,"
        }
    ]
}
