{
    "asset" : {
        "generator" : "Khronos glTF Blender I/O v1.1.45",
        "version" : "2.0"
    },
    "scene" : 0,
    "scenes" : [
        {
            "name" : "Scene",
            "nodes" : [
                0,
                1,
                4
            ]
        }
    ],
    "nodes" : [
        {
            "name" : "Light",
            "rotation" : [
                0.16907575726509094,
                0.7558803558349609,
                -0.27217137813568115,
                0.570947527885437
            ],
            "translation" : [
                4.076245307922363,
                5.903861999511719,
                -1.0054539442062378
            ]
        },
        {
            "name" : "Camera",
            "rotation" : [
                0.483536034822464,
                0.33687159419059753,
                -0.20870360732078552,
                0.7804827094078064
            ],
            "translation" : [
                7.358891487121582,
                4.958309173583984,
                6.925790786743164
            ]
        },
        {
            "mesh" : 0,
            "name" : "pasted__pasted__pasted__pasted__pasted__pCube64",
            "scale" : [
                0.3371238112449646,
                22.40447425842285,
                0.3371238112449646
            ],
            "translation" : [
                -103.18521118164062,
                16.697158813476562,
                -8.103843688964844
            ]
        },
        {
            "children" : [
                2
            ],
            "name" : "pasted__portailB"
        },
        {
            "children" : [
                3
            ],
            "name" : "group43",
            "rotation" : [
                0.7071068286895752,
                0,
                0,
                0.7071067094802856
            ],
            "scale" : [
                0.007282215170562267,
                0.007282215170562267,
                0.007282215170562267
            ],
            "translation" : [
                1.0335471630096436,
                -0.0005913448403589427,
                0.0009185158996842802
            ]
        }
    ],
    "materials" : [
        {
            "doubleSided" : true,
            "emissiveFactor" : [
                0.9685999751091003,
                0.14499999582767487,
                0.5214999914169312
            ],
            "name" : "pasted__Neo_Red",
            "pbrMetallicRoughness" : {
                "baseColorFactor" : [
                    0.5,
                    0.5,
                    0.5,
                    1
                ],
                "metallicFactor" : 0,
                "roughnessFactor" : 0.5527864098548889
            }
        },
        {
            "doubleSided" : true,
            "emissiveFactor" : [
                0,
                0,
                0
            ],
            "name" : "pipe1",
            "pbrMetallicRoughness" : {
                "baseColorFactor" : [
                    1,
                    1,
                    1,
                    1
                ],
                "metallicFactor" : 0,
                "roughnessFactor" : 0.5527864098548889
            }
        },
        {
            "doubleSided" : true,
            "emissiveFactor" : [
                0,
                0,
                0
            ],
            "name" : "lambert2",
            "pbrMetallicRoughness" : {
                "baseColorFactor" : [
                    0.23076923191547394,
                    0.23076923191547394,
                    0.23076923191547394,
                    1
                ],
                "metallicFactor" : 0,
                "roughnessFactor" : 0.5527864098548889
            }
        }
    ],
    "meshes" : [
        {
            "name" : "Mesh",
            "primitives" : [
                {
                    "attributes" : {
                        "POSITION" : 0,
                        "NORMAL" : 1,
                        "TEXCOORD_0" : 2
                    },
                    "indices" : 3,
                    "material" : 0
                },
                {
                    "attributes" : {
                        "POSITION" : 4,
                        "NORMAL" : 5,
                        "TEXCOORD_0" : 6
                    },
                    "indices" : 7,
                    "material" : 1
                },
                {
                    "attributes" : {
                        "POSITION" : 8,
                        "NORMAL" : 9,
                        "TEXCOORD_0" : 10
                    },
                    "indices" : 11,
                    "material" : 2
                }
            ]
        }
    ],
    "accessors" : [
        {
            "bufferView" : 0,
            "componentType" : 5126,
            "count" : 657,
            "max" : [
                2.405956268310547,
                0.4330979883670807,
                1.9686678647994995
            ],
            "min" : [
                1.1778916120529175,
                -0.5669020414352417,
                -20.27666473388672
            ],
            "type" : "VEC3"
        },
        {
            "bufferView" : 1,
            "componentType" : 5126,
            "count" : 657,
            "type" : "VEC3"
        },
        {
            "bufferView" : 2,
            "componentType" : 5126,
            "count" : 657,
            "type" : "VEC2"
        },
        {
            "bufferView" : 3,
            "componentType" : 5123,
            "count" : 2952,
            "type" : "SCALAR"
        },
        {
            "bufferView" : 4,
            "componentType" : 5126,
            "count" : 72,
            "max" : [
                2.6564693450927734,
                0.6338547468185425,
                23.76300811767578
            ],
            "min" : [
                -3.0351696014404297,
                -0.7302267551422119,
                -21.095062255859375
            ],
            "type" : "VEC3"
        },
        {
            "bufferView" : 5,
            "componentType" : 5126,
            "count" : 72,
            "type" : "VEC3"
        },
        {
            "bufferView" : 6,
            "componentType" : 5126,
            "count" : 72,
            "type" : "VEC2"
        },
        {
            "bufferView" : 7,
            "componentType" : 5123,
            "count" : 108,
            "type" : "SCALAR"
        },
        {
            "bufferView" : 8,
            "componentType" : 5126,
            "count" : 92,
            "max" : [
                1.4475213289260864,
                0.7066891193389893,
                26.300931930541992
            ],
            "min" : [
                -1.5187567472457886,
                -0.727076530456543,
                -25.51375961303711
            ],
            "type" : "VEC3"
        },
        {
            "bufferView" : 9,
            "componentType" : 5126,
            "count" : 92,
            "type" : "VEC3"
        },
        {
            "bufferView" : 10,
            "componentType" : 5126,
            "count" : 92,
            "type" : "VEC2"
        },
        {
            "bufferView" : 11,
            "componentType" : 5123,
            "count" : 192,
            "type" : "SCALAR"
        }
    ],
    "bufferViews" : [
        {
            "buffer" : 0,
            "byteLength" : 7884,
            "byteOffset" : 0
        },
        {
            "buffer" : 0,
            "byteLength" : 7884,
            "byteOffset" : 7884
        },
        {
            "buffer" : 0,
            "byteLength" : 5256,
            "byteOffset" : 15768
        },
        {
            "buffer" : 0,
            "byteLength" : 5904,
            "byteOffset" : 21024
        },
        {
            "buffer" : 0,
            "byteLength" : 864,
            "byteOffset" : 26928
        },
        {
            "buffer" : 0,
            "byteLength" : 864,
            "byteOffset" : 27792
        },
        {
            "buffer" : 0,
            "byteLength" : 576,
            "byteOffset" : 28656
        },
        {
            "buffer" : 0,
            "byteLength" : 216,
            "byteOffset" : 29232
        },
        {
            "buffer" : 0,
            "byteLength" : 1104,
            "byteOffset" : 29448
        },
        {
            "buffer" : 0,
            "byteLength" : 1104,
            "byteOffset" : 30552
        },
        {
            "buffer" : 0,
            "byteLength" : 736,
            "byteOffset" : 31656
        },
        {
            "buffer" : 0,
            "byteLength" : 384,
            "byteOffset" : 32392
        }
    ],
    "buffers" : [
        {
            "byteLength" : 32776,
            "uri" : "data:application/octet-stream;base64,"
        }
    ]
}
