{
    "asset" : {
        "generator" : "Khronos glTF Blender I/O v1.1.45",
        "version" : "2.0"
    },
    "scene" : 0,
    "scenes" : [
        {
            "name" : "Scene",
            "nodes" : [
                0,
                1
            ]
        }
    ],
    "nodes" : [
        {
            "mesh" : 0,
            "name" : "polySurface84",
            "rotation" : [
                0.7071067690849304,
                0,
                0,
                0.7071067690849304
            ],
            "scale" : [
                0.5,
                0.5,
                0.5
            ]
        },
        {
            "name" : "transform4.001"
        }
    ],
    "materials" : [
        {
            "doubleSided" : true,
            "emissiveFactor" : [
                0,
                0,
                0
            ],
            "name" : "lambert1.001",
            "pbrMetallicRoughness" : {
                "baseColorFactor" : [
                    0.7617999911308289,
                    0.1088000014424324,
                    0.47760000824928284,
                    1
                ],
                "metallicFactor" : 0,
                "roughnessFactor" : 0.5527864098548889
            }
        }
    ],
    "meshes" : [
        {
            "name" : "Mesh.028",
            "primitives" : [
                {
                    "attributes" : {
                        "POSITION" : 0,
                        "NORMAL" : 1,
                        "TEXCOORD_0" : 2
                    },
                    "indices" : 3,
                    "material" : 0
                }
            ]
        }
    ],
    "accessors" : [
        {
            "bufferView" : 0,
            "componentType" : 5126,
            "count" : 1724,
            "max" : [
                2.9824013710021973,
                0.36531925201416016,
                2.903242826461792
            ],
            "min" : [
                -2.9824013710021973,
                -0.36531925201416016,
                -2.903242826461792
            ],
            "type" : "VEC3"
        },
        {
            "bufferView" : 1,
            "componentType" : 5126,
            "count" : 1724,
            "type" : "VEC3"
        },
        {
            "bufferView" : 2,
            "componentType" : 5126,
            "count" : 1724,
            "type" : "VEC2"
        },
        {
            "bufferView" : 3,
            "componentType" : 5123,
            "count" : 7476,
            "type" : "SCALAR"
        }
    ],
    "bufferViews" : [
        {
            "buffer" : 0,
            "byteLength" : 20688,
            "byteOffset" : 0
        },
        {
            "buffer" : 0,
            "byteLength" : 20688,
            "byteOffset" : 20688
        },
        {
            "buffer" : 0,
            "byteLength" : 13792,
            "byteOffset" : 41376
        },
        {
            "buffer" : 0,
            "byteLength" : 14952,
            "byteOffset" : 55168
        }
    ],
    "buffers" : [
        {
            "byteLength" : 70120,
            "uri" : "data:application/octet-stream;base64,"
        }
    ]
}
