{
    "asset" : {
        "generator" : "Khronos glTF Blender I/O v1.1.45",
        "version" : "2.0"
    },
    "scene" : 0,
    "scenes" : [
        {
            "name" : "Scene",
            "nodes" : [
                0
            ]
        }
    ],
    "nodes" : [
        {
            "mesh" : 0,
            "name" : "polySurface10",
            "rotation" : [
                0.004520326852798462,
                -0.9966702461242676,
                -0.08128691464662552,
                0.004520319402217865
            ],
            "scale" : [
                0.12437116354703903,
                0.08142834901809692,
                0.5800091028213501
            ],
            "translation" : [
                0.1309453397989273,
                0.15350030362606049,
                0.172628715634346
            ]
        }
    ],
    "materials" : [
        {
            "doubleSided" : true,
            "emissiveFactor" : [
                0,
                0.20360000431537628,
                0.2071000039577484
            ],
            "name" : "lambert10",
            "pbrMetallicRoughness" : {
                "baseColorTexture" : {
                    "index" : 0,
                    "texCoord" : 0
                },
                "metallicFactor" : 0,
                "roughnessFactor" : 0.5527864098548889
            }
        },
        {
            "doubleSided" : true,
            "emissiveFactor" : [
                0,
                0,
                0
            ],
            "name" : "phongE1",
            "pbrMetallicRoughness" : {
                "baseColorFactor" : [
                    0.05490000173449516,
                    0.05490000173449516,
                    0.05490000173449516,
                    1
                ],
                "metallicFactor" : 0.5,
                "roughnessFactor" : 0.5527864098548889
            }
        },
        {
            "doubleSided" : true,
            "emissiveFactor" : [
                0.9685999751091003,
                0.14499999582767487,
                0.5214999914169312
            ],
            "name" : "Neo_Red",
            "pbrMetallicRoughness" : {
                "baseColorFactor" : [
                    0.5,
                    0.5,
                    0.5,
                    1
                ],
                "metallicFactor" : 0,
                "roughnessFactor" : 0.5527864098548889
            }
        },
        {
            "doubleSided" : true,
            "emissiveFactor" : [
                0.08791209012269974,
                0.08791209012269974,
                0.08791209012269974
            ],
            "name" : "penneau1",
            "pbrMetallicRoughness" : {
                "metallicFactor" : 0,
                "roughnessFactor" : 0.5527864098548889
            }
        }
    ],
    "meshes" : [
        {
            "name" : "Mesh.009",
            "primitives" : [
                {
                    "attributes" : {
                        "POSITION" : 0,
                        "NORMAL" : 1,
                        "TEXCOORD_0" : 2
                    },
                    "indices" : 3,
                    "material" : 0
                },
                {
                    "attributes" : {
                        "POSITION" : 4,
                        "NORMAL" : 5,
                        "TEXCOORD_0" : 6
                    },
                    "indices" : 7,
                    "material" : 1
                },
                {
                    "attributes" : {
                        "POSITION" : 8,
                        "NORMAL" : 9,
                        "TEXCOORD_0" : 10
                    },
                    "indices" : 11,
                    "material" : 2
                },
                {
                    "attributes" : {
                        "POSITION" : 12,
                        "NORMAL" : 13,
                        "TEXCOORD_0" : 14
                    },
                    "indices" : 15,
                    "material" : 3
                }
            ]
        }
    ],
    "textures" : [
        {
            "source" : 0
        }
    ],
    "images" : [
        {
            "bufferView" : 4,
            "mimeType" : "image/jpeg",
            "name" : "1"
        }
    ],
    "accessors" : [
        {
            "bufferView" : 0,
            "componentType" : 5126,
            "count" : 24,
            "max" : [
                0.29101425409317017,
                1.8820819854736328,
                0.2980344891548157
            ],
            "min" : [
                -0.3143235445022583,
                0.9214359521865845,
                0.14088302850723267
            ],
            "type" : "VEC3"
        },
        {
            "bufferView" : 1,
            "componentType" : 5126,
            "count" : 24,
            "type" : "VEC3"
        },
        {
            "bufferView" : 2,
            "componentType" : 5126,
            "count" : 24,
            "type" : "VEC2"
        },
        {
            "bufferView" : 3,
            "componentType" : 5123,
            "count" : 36,
            "type" : "SCALAR"
        },
        {
            "bufferView" : 5,
            "componentType" : 5126,
            "count" : 148,
            "max" : [
                0.5588966608047485,
                2.2939059734344482,
                0.2840743958950043
            ],
            "min" : [
                -0.5258122086524963,
                -2.4630181789398193,
                -0.1723090410232544
            ],
            "type" : "VEC3"
        },
        {
            "bufferView" : 6,
            "componentType" : 5126,
            "count" : 148,
            "type" : "VEC3"
        },
        {
            "bufferView" : 7,
            "componentType" : 5126,
            "count" : 148,
            "type" : "VEC2"
        },
        {
            "bufferView" : 8,
            "componentType" : 5123,
            "count" : 336,
            "type" : "SCALAR"
        },
        {
            "bufferView" : 9,
            "componentType" : 5126,
            "count" : 384,
            "max" : [
                0.5342897772789001,
                1.0838947296142578,
                0.12051904201507568
            ],
            "min" : [
                -0.5208034515380859,
                -1.0815186500549316,
                -0.11350959539413452
            ],
            "type" : "VEC3"
        },
        {
            "bufferView" : 10,
            "componentType" : 5126,
            "count" : 384,
            "type" : "VEC3"
        },
        {
            "bufferView" : 11,
            "componentType" : 5126,
            "count" : 384,
            "type" : "VEC2"
        },
        {
            "bufferView" : 12,
            "componentType" : 5123,
            "count" : 696,
            "type" : "SCALAR"
        },
        {
            "bufferView" : 13,
            "componentType" : 5126,
            "count" : 48,
            "max" : [
                -0.5152953863143921,
                1.987384557723999,
                0.06331264972686768
            ],
            "min" : [
                -0.5803539752960205,
                -1.8745663166046143,
                -0.13184958696365356
            ],
            "type" : "VEC3"
        },
        {
            "bufferView" : 14,
            "componentType" : 5126,
            "count" : 48,
            "type" : "VEC3"
        },
        {
            "bufferView" : 15,
            "componentType" : 5126,
            "count" : 48,
            "type" : "VEC2"
        },
        {
            "bufferView" : 16,
            "componentType" : 5123,
            "count" : 84,
            "type" : "SCALAR"
        }
    ],
    "bufferViews" : [
        {
            "buffer" : 0,
            "byteLength" : 288,
            "byteOffset" : 0
        },
        {
            "buffer" : 0,
            "byteLength" : 288,
            "byteOffset" : 288
        },
        {
            "buffer" : 0,
            "byteLength" : 192,
            "byteOffset" : 576
        },
        {
            "buffer" : 0,
            "byteLength" : 72,
            "byteOffset" : 768
        },
        {
            "buffer" : 0,
            "byteLength" : 73737,
            "byteOffset" : 840
        },
        {
            "buffer" : 0,
            "byteLength" : 1776,
            "byteOffset" : 74580
        },
        {
            "buffer" : 0,
            "byteLength" : 1776,
            "byteOffset" : 76356
        },
        {
            "buffer" : 0,
            "byteLength" : 1184,
            "byteOffset" : 78132
        },
        {
            "buffer" : 0,
            "byteLength" : 672,
            "byteOffset" : 79316
        },
        {
            "buffer" : 0,
            "byteLength" : 4608,
            "byteOffset" : 79988
        },
        {
            "buffer" : 0,
            "byteLength" : 4608,
            "byteOffset" : 84596
        },
        {
            "buffer" : 0,
            "byteLength" : 3072,
            "byteOffset" : 89204
        },
        {
            "buffer" : 0,
            "byteLength" : 1392,
            "byteOffset" : 92276
        },
        {
            "buffer" : 0,
            "byteLength" : 576,
            "byteOffset" : 93668
        },
        {
            "buffer" : 0,
            "byteLength" : 576,
            "byteOffset" : 94244
        },
        {
            "buffer" : 0,
            "byteLength" : 384,
            "byteOffset" : 94820
        },
        {
            "buffer" : 0,
            "byteLength" : 168,
            "byteOffset" : 95204
        }
    ],
    "buffers" : [
        {
            "byteLength" : 95372,
            "uri" : "data:application/octet-stream;base64,"
        }
    ]
}
