{
    "asset" : {
        "generator" : "Khronos glTF Blender I/O v1.1.45",
        "version" : "2.0"
    },
    "scene" : 0,
    "scenes" : [
        {
            "name" : "Scene",
            "nodes" : [
                0,
                1,
                3
            ]
        }
    ],
    "nodes" : [
        {
            "name" : "Light",
            "rotation" : [
                0.16907575726509094,
                0.7558803558349609,
                -0.27217137813568115,
                0.570947527885437
            ],
            "translation" : [
                4.076245307922363,
                5.903861999511719,
                -1.0054539442062378
            ]
        },
        {
            "name" : "Camera",
            "rotation" : [
                0.483536034822464,
                0.33687159419059753,
                -0.20870360732078552,
                0.7804827094078064
            ],
            "translation" : [
                7.358891487121582,
                4.958309173583984,
                6.925790786743164
            ]
        },
        {
            "mesh" : 0,
            "name" : "pasted__pCube63",
            "scale" : [
                0.9922654628753662,
                0.15145638585090637,
                16.752593994140625
            ],
            "translation" : [
                -103.1766357421875,
                -13.198362350463867,
                -7.954099178314209
            ]
        },
        {
            "children" : [
                2
            ],
            "name" : "group43",
            "rotation" : [
                0.7071068286895752,
                0,
                0,
                0.7071067094802856
            ],
            "scale" : [
                0.007282215170562267,
                0.007282215170562267,
                0.007282215170562267
            ],
            "translation" : [
                1.0335471630096436,
                -0.0005913448403589427,
                0.0009185158996842802
            ]
        }
    ],
    "materials" : [
        {
            "doubleSided" : true,
            "emissiveFactor" : [
                0.1809433251619339,
                0.47858893871307373,
                0.5714285969734192
            ],
            "name" : "pasted__Neo_Blue",
            "pbrMetallicRoughness" : {
                "baseColorFactor" : [
                    0.5,
                    0.5,
                    0.5,
                    1
                ],
                "metallicFactor" : 0,
                "roughnessFactor" : 0.5527864098548889
            }
        },
        {
            "doubleSided" : true,
            "emissiveFactor" : [
                0,
                0,
                0
            ],
            "name" : "lambert2",
            "pbrMetallicRoughness" : {
                "baseColorFactor" : [
                    0.23076923191547394,
                    0.23076923191547394,
                    0.23076923191547394,
                    1
                ],
                "metallicFactor" : 0,
                "roughnessFactor" : 0.5527864098548889
            }
        },
        {
            "doubleSided" : true,
            "emissiveFactor" : [
                0.9685999751091003,
                0.14499999582767487,
                0.5214999914169312
            ],
            "name" : "pasted__Neo_Red",
            "pbrMetallicRoughness" : {
                "baseColorFactor" : [
                    0.5,
                    0.5,
                    0.5,
                    1
                ],
                "metallicFactor" : 0,
                "roughnessFactor" : 0.5527864098548889
            }
        },
        {
            "doubleSided" : true,
            "emissiveFactor" : [
                0,
                0,
                0
            ],
            "name" : "pipe1",
            "pbrMetallicRoughness" : {
                "baseColorFactor" : [
                    1,
                    1,
                    1,
                    1
                ],
                "metallicFactor" : 0,
                "roughnessFactor" : 0.5527864098548889
            }
        },
        {
            "doubleSided" : true,
            "emissiveFactor" : [
                0.1809433251619339,
                0.47858893871307373,
                0.5714285969734192
            ],
            "name" : "pasted__pasted__Neo_Blue3",
            "pbrMetallicRoughness" : {
                "baseColorFactor" : [
                    0.5,
                    0.5,
                    0.5,
                    1
                ],
                "metallicFactor" : 0,
                "roughnessFactor" : 0.5527864098548889
            }
        },
        {
            "doubleSided" : true,
            "emissiveFactor" : [
                0,
                0,
                0
            ],
            "name" : "pasted__pipe2",
            "pbrMetallicRoughness" : {
                "baseColorFactor" : [
                    1,
                    1,
                    1,
                    1
                ],
                "metallicFactor" : 0,
                "roughnessFactor" : 0.5527864098548889
            }
        }
    ],
    "meshes" : [
        {
            "name" : "Mesh",
            "primitives" : [
                {
                    "attributes" : {
                        "POSITION" : 0,
                        "NORMAL" : 1,
                        "TEXCOORD_0" : 2
                    },
                    "indices" : 3,
                    "material" : 0
                },
                {
                    "attributes" : {
                        "POSITION" : 4,
                        "NORMAL" : 5,
                        "TEXCOORD_0" : 6
                    },
                    "indices" : 7,
                    "material" : 1
                },
                {
                    "attributes" : {
                        "POSITION" : 8,
                        "NORMAL" : 9,
                        "TEXCOORD_0" : 10
                    },
                    "indices" : 11,
                    "material" : 2
                },
                {
                    "attributes" : {
                        "POSITION" : 12,
                        "NORMAL" : 13,
                        "TEXCOORD_0" : 14
                    },
                    "indices" : 15,
                    "material" : 3
                },
                {
                    "attributes" : {
                        "POSITION" : 16,
                        "NORMAL" : 17,
                        "TEXCOORD_0" : 18
                    },
                    "indices" : 19,
                    "material" : 4
                },
                {
                    "attributes" : {
                        "POSITION" : 20,
                        "NORMAL" : 21,
                        "TEXCOORD_0" : 22
                    },
                    "indices" : 23,
                    "material" : 5
                }
            ]
        }
    ],
    "accessors" : [
        {
            "bufferView" : 0,
            "componentType" : 5126,
            "count" : 120,
            "max" : [
                0.9333006143569946,
                113.87371826171875,
                0.47864776849746704
            ],
            "min" : [
                -0.5041549205780029,
                88.9305648803711,
                -0.521352231502533
            ],
            "type" : "VEC3"
        },
        {
            "bufferView" : 1,
            "componentType" : 5126,
            "count" : 120,
            "type" : "VEC3"
        },
        {
            "bufferView" : 2,
            "componentType" : 5126,
            "count" : 120,
            "type" : "VEC2"
        },
        {
            "bufferView" : 3,
            "componentType" : 5123,
            "count" : 288,
            "type" : "SCALAR"
        },
        {
            "bufferView" : 4,
            "componentType" : 5126,
            "count" : 202,
            "max" : [
                1.5147875547409058,
                112.517822265625,
                0.520332932472229
            ],
            "min" : [
                -2.6795575618743896,
                -123.17644500732422,
                -0.5223691463470459
            ],
            "type" : "VEC3"
        },
        {
            "bufferView" : 5,
            "componentType" : 5126,
            "count" : 202,
            "type" : "VEC3"
        },
        {
            "bufferView" : 6,
            "componentType" : 5126,
            "count" : 202,
            "type" : "VEC2"
        },
        {
            "bufferView" : 7,
            "componentType" : 5123,
            "count" : 468,
            "type" : "SCALAR"
        },
        {
            "bufferView" : 8,
            "componentType" : 5126,
            "count" : 741,
            "max" : [
                1.8596304655075073,
                107.89942932128906,
                0.17646269500255585
            ],
            "min" : [
                0.44825416803359985,
                -73.51033782958984,
                -0.15626931190490723
            ],
            "type" : "VEC3"
        },
        {
            "bufferView" : 9,
            "componentType" : 5126,
            "count" : 741,
            "type" : "VEC3"
        },
        {
            "bufferView" : 10,
            "componentType" : 5126,
            "count" : 741,
            "type" : "VEC2"
        },
        {
            "bufferView" : 11,
            "componentType" : 5123,
            "count" : 3192,
            "type" : "SCALAR"
        },
        {
            "bufferView" : 12,
            "componentType" : 5126,
            "count" : 54,
            "max" : [
                0.8087811470031738,
                88.98725128173828,
                0.4692605137825012
            ],
            "min" : [
                0.4690311551094055,
                -41.35624313354492,
                0.18132051825523376
            ],
            "type" : "VEC3"
        },
        {
            "bufferView" : 13,
            "componentType" : 5126,
            "count" : 54,
            "type" : "VEC3"
        },
        {
            "bufferView" : 14,
            "componentType" : 5126,
            "count" : 54,
            "type" : "VEC2"
        },
        {
            "bufferView" : 15,
            "componentType" : 5123,
            "count" : 96,
            "type" : "SCALAR"
        },
        {
            "bufferView" : 16,
            "componentType" : 5126,
            "count" : 96,
            "max" : [
                0.9333046674728394,
                88.90889739990234,
                0.2332262545824051
            ],
            "min" : [
                0.3208295702934265,
                64.29810333251953,
                -0.2074277102947235
            ],
            "type" : "VEC3"
        },
        {
            "bufferView" : 17,
            "componentType" : 5126,
            "count" : 96,
            "type" : "VEC3"
        },
        {
            "bufferView" : 18,
            "componentType" : 5126,
            "count" : 96,
            "type" : "VEC2"
        },
        {
            "bufferView" : 19,
            "componentType" : 5123,
            "count" : 252,
            "type" : "SCALAR"
        },
        {
            "bufferView" : 20,
            "componentType" : 5126,
            "count" : 24,
            "max" : [
                0.8087758421897888,
                89.3860092163086,
                -0.4119229316711426
            ],
            "min" : [
                0.4690241813659668,
                -113.97936248779297,
                -0.4320465922355652
            ],
            "type" : "VEC3"
        },
        {
            "bufferView" : 21,
            "componentType" : 5126,
            "count" : 24,
            "type" : "VEC3"
        },
        {
            "bufferView" : 22,
            "componentType" : 5126,
            "count" : 24,
            "type" : "VEC2"
        },
        {
            "bufferView" : 23,
            "componentType" : 5123,
            "count" : 36,
            "type" : "SCALAR"
        }
    ],
    "bufferViews" : [
        {
            "buffer" : 0,
            "byteLength" : 1440,
            "byteOffset" : 0
        },
        {
            "buffer" : 0,
            "byteLength" : 1440,
            "byteOffset" : 1440
        },
        {
            "buffer" : 0,
            "byteLength" : 960,
            "byteOffset" : 2880
        },
        {
            "buffer" : 0,
            "byteLength" : 576,
            "byteOffset" : 3840
        },
        {
            "buffer" : 0,
            "byteLength" : 2424,
            "byteOffset" : 4416
        },
        {
            "buffer" : 0,
            "byteLength" : 2424,
            "byteOffset" : 6840
        },
        {
            "buffer" : 0,
            "byteLength" : 1616,
            "byteOffset" : 9264
        },
        {
            "buffer" : 0,
            "byteLength" : 936,
            "byteOffset" : 10880
        },
        {
            "buffer" : 0,
            "byteLength" : 8892,
            "byteOffset" : 11816
        },
        {
            "buffer" : 0,
            "byteLength" : 8892,
            "byteOffset" : 20708
        },
        {
            "buffer" : 0,
            "byteLength" : 5928,
            "byteOffset" : 29600
        },
        {
            "buffer" : 0,
            "byteLength" : 6384,
            "byteOffset" : 35528
        },
        {
            "buffer" : 0,
            "byteLength" : 648,
            "byteOffset" : 41912
        },
        {
            "buffer" : 0,
            "byteLength" : 648,
            "byteOffset" : 42560
        },
        {
            "buffer" : 0,
            "byteLength" : 432,
            "byteOffset" : 43208
        },
        {
            "buffer" : 0,
            "byteLength" : 192,
            "byteOffset" : 43640
        },
        {
            "buffer" : 0,
            "byteLength" : 1152,
            "byteOffset" : 43832
        },
        {
            "buffer" : 0,
            "byteLength" : 1152,
            "byteOffset" : 44984
        },
        {
            "buffer" : 0,
            "byteLength" : 768,
            "byteOffset" : 46136
        },
        {
            "buffer" : 0,
            "byteLength" : 504,
            "byteOffset" : 46904
        },
        {
            "buffer" : 0,
            "byteLength" : 288,
            "byteOffset" : 47408
        },
        {
            "buffer" : 0,
            "byteLength" : 288,
            "byteOffset" : 47696
        },
        {
            "buffer" : 0,
            "byteLength" : 192,
            "byteOffset" : 47984
        },
        {
            "buffer" : 0,
            "byteLength" : 72,
            "byteOffset" : 48176
        }
    ],
    "buffers" : [
        {
            "byteLength" : 48248,
            "uri" : "data:application/octet-stream;base64,"
        }
    ]
}
