{
    "asset" : {
        "generator" : "Khronos glTF Blender I/O v1.1.45",
        "version" : "2.0"
    },
    "scene" : 0,
    "scenes" : [
        {
            "name" : "Scene",
            "nodes" : [
                0,
                1,
                4,
                20
            ]
        }
    ],
    "nodes" : [
        {
            "name" : "Light",
            "rotation" : [
                0.16907575726509094,
                0.7558803558349609,
                -0.27217137813568115,
                0.570947527885437
            ],
            "translation" : [
                4.076245307922363,
                5.903861999511719,
                -1.0054539442062378
            ]
        },
        {
            "name" : "Camera",
            "rotation" : [
                0.483536034822464,
                0.33687159419059753,
                -0.20870360732078552,
                0.7804827094078064
            ],
            "translation" : [
                7.358891487121582,
                4.958309173583984,
                6.925790786743164
            ]
        },
        {
            "name" : "pasted__pasted__PortailA"
        },
        {
            "children" : [
                2
            ],
            "name" : "pasted__group43",
            "scale" : [
                0.728221595287323,
                0.728221595287323,
                0.728221595287323
            ],
            "translation" : [
                103.3547134399414,
                0.09185159206390381,
                0.059134483337402344
            ]
        },
        {
            "children" : [
                3
            ],
            "name" : "group62",
            "rotation" : [
                0.7071068286895752,
                0,
                0,
                0.7071067094802856
            ],
            "scale" : [
                0.009999999776482582,
                0.009999999776482582,
                0.009999999776482582
            ],
            "translation" : [
                0,
                0,
                -0.2246018350124359
            ]
        },
        {
            "name" : "pasted__group23",
            "translation" : [
                1.1229782104492188,
                3.808082342147827,
                0
            ]
        },
        {
            "name" : "polySurface154",
            "translation" : [
                0,
                0,
                5.121875286102295
            ]
        },
        {
            "children" : [
                6
            ],
            "name" : "pasted__polySurface43",
            "rotation" : [
                0,
                0.7071068286895752,
                0,
                0.7071067094802856
            ],
            "scale" : [
                3.4293994903564453,
                3.4293994903564453,
                1
            ],
            "translation" : [
                -102.64720916748047,
                0.356634259223938,
                -7.7849555015563965
            ]
        },
        {
            "name" : "transform11"
        },
        {
            "children" : [
                8
            ],
            "name" : "pasted__polySurface44",
            "rotation" : [
                0.4932864010334015,
                0.5066257119178772,
                0.49328532814979553,
                0.5066246390342712
            ],
            "scale" : [
                3.1991524696350098,
                3.1991524696350098,
                0.30386883020401
            ],
            "translation" : [
                -102.55443572998047,
                0.35823655128479004,
                -7.798784255981445
            ]
        },
        {
            "name" : "transform10"
        },
        {
            "children" : [
                10
            ],
            "name" : "polySurface160"
        },
        {
            "name" : "transform9"
        },
        {
            "children" : [
                11,
                12
            ],
            "name" : "polySurface157"
        },
        {
            "name" : "transform8"
        },
        {
            "children" : [
                13,
                14
            ],
            "name" : "pasted__pTorus2",
            "rotation" : [
                0,
                0.7071068286895752,
                0,
                0.7071067094802856
            ],
            "translation" : [
                -101.53140258789062,
                0.356634259223938,
                -7.78495454788208
            ]
        },
        {
            "children" : [
                7,
                9,
                15
            ],
            "name" : "pasted__portailB"
        },
        {
            "name" : "pasted__PortailC"
        },
        {
            "mesh" : 0,
            "name" : "pasted__polySurface51",
            "scale" : [
                1,
                0.8003895878791809,
                1
            ],
            "translation" : [
                0,
                -0.17218399047851562,
                0
            ]
        },
        {
            "children" : [
                18
            ],
            "name" : "pasted__PortailD"
        },
        {
            "children" : [
                5,
                16,
                17,
                19
            ],
            "name" : "group43",
            "rotation" : [
                0.7071068286895752,
                0,
                0,
                0.7071067094802856
            ],
            "scale" : [
                0.007282215636223555,
                0.007282215636223555,
                0.007282215636223555
            ],
            "translation" : [
                1.0335471630096436,
                -0.0005913448403589427,
                0.0009185158996842802
            ]
        }
    ],
    "materials" : [
        {
            "doubleSided" : true,
            "emissiveFactor" : [
                0,
                0,
                0
            ],
            "name" : "lambert19",
            "pbrMetallicRoughness" : {
                "baseColorFactor" : [
                    0.23076923191547394,
                    0.23076923191547394,
                    0.23076923191547394,
                    1
                ],
                "metallicFactor" : 0,
                "roughnessFactor" : 0.5527864098548889
            }
        },
        {
            "doubleSided" : true,
            "emissiveFactor" : [
                0,
                0,
                0
            ],
            "name" : "pasted__pipe3",
            "pbrMetallicRoughness" : {
                "baseColorFactor" : [
                    1,
                    1,
                    1,
                    1
                ],
                "metallicFactor" : 0,
                "roughnessFactor" : 0.5527864098548889
            }
        },
        {
            "doubleSided" : true,
            "emissiveFactor" : [
                0.9685999751091003,
                0.14499999582767487,
                0.5214999914169312
            ],
            "name" : "pasted__Neo_Red3",
            "pbrMetallicRoughness" : {
                "baseColorFactor" : [
                    0.5,
                    0.5,
                    0.5,
                    1
                ],
                "metallicFactor" : 0,
                "roughnessFactor" : 0.5527864098548889
            }
        },
        {
            "doubleSided" : true,
            "emissiveFactor" : [
                0.25686368346214294,
                0.6793954968452454,
                0.811188817024231
            ],
            "name" : "pasted__Neo_Blue3",
            "pbrMetallicRoughness" : {
                "baseColorFactor" : [
                    0.5,
                    0.5,
                    0.5,
                    1
                ],
                "metallicFactor" : 0,
                "roughnessFactor" : 0.5527864098548889
            }
        },
        {
            "doubleSided" : true,
            "emissiveFactor" : [
                0,
                0,
                0
            ],
            "name" : "pipe5",
            "pbrMetallicRoughness" : {
                "baseColorFactor" : [
                    1,
                    1,
                    1,
                    1
                ],
                "metallicFactor" : 0,
                "roughnessFactor" : 0.5527864098548889
            }
        }
    ],
    "meshes" : [
        {
            "name" : "Mesh.014",
            "primitives" : [
                {
                    "attributes" : {
                        "POSITION" : 0,
                        "NORMAL" : 1,
                        "TEXCOORD_0" : 2
                    },
                    "indices" : 3,
                    "material" : 0
                },
                {
                    "attributes" : {
                        "POSITION" : 4,
                        "NORMAL" : 5,
                        "TEXCOORD_0" : 6
                    },
                    "indices" : 7,
                    "material" : 1
                },
                {
                    "attributes" : {
                        "POSITION" : 8,
                        "NORMAL" : 9,
                        "TEXCOORD_0" : 10
                    },
                    "indices" : 11,
                    "material" : 2
                },
                {
                    "attributes" : {
                        "POSITION" : 12,
                        "NORMAL" : 13,
                        "TEXCOORD_0" : 14
                    },
                    "indices" : 15,
                    "material" : 3
                },
                {
                    "attributes" : {
                        "POSITION" : 16,
                        "NORMAL" : 17,
                        "TEXCOORD_0" : 18
                    },
                    "indices" : 19,
                    "material" : 4
                }
            ]
        }
    ],
    "accessors" : [
        {
            "bufferView" : 0,
            "componentType" : 5126,
            "count" : 100,
            "max" : [
                -102.69723510742188,
                0.7559611201286316,
                0.7628278732299805
            ],
            "min" : [
                -103.69723510742188,
                -39.4294319152832,
                -16.70513916015625
            ],
            "type" : "VEC3"
        },
        {
            "bufferView" : 1,
            "componentType" : 5126,
            "count" : 100,
            "type" : "VEC3"
        },
        {
            "bufferView" : 2,
            "componentType" : 5126,
            "count" : 100,
            "type" : "VEC2"
        },
        {
            "bufferView" : 3,
            "componentType" : 5123,
            "count" : 192,
            "type" : "SCALAR"
        },
        {
            "bufferView" : 4,
            "componentType" : 5126,
            "count" : 24,
            "max" : [
                -102.37411499023438,
                0.6395683288574219,
                -14.854878425598145
            ],
            "min" : [
                -102.71124267578125,
                -37.842926025390625,
                -15.192002296447754
            ],
            "type" : "VEC3"
        },
        {
            "bufferView" : 5,
            "componentType" : 5126,
            "count" : 24,
            "type" : "VEC3"
        },
        {
            "bufferView" : 6,
            "componentType" : 5126,
            "count" : 24,
            "type" : "VEC2"
        },
        {
            "bufferView" : 7,
            "componentType" : 5123,
            "count" : 36,
            "type" : "SCALAR"
        },
        {
            "bufferView" : 8,
            "componentType" : 5126,
            "count" : 896,
            "max" : [
                -101.33141326904297,
                4.135548114776611,
                -4.997891902923584
            ],
            "min" : [
                -101.7314224243164,
                -2.821432113647461,
                -10.572015762329102
            ],
            "type" : "VEC3"
        },
        {
            "bufferView" : 9,
            "componentType" : 5126,
            "count" : 896,
            "type" : "VEC3"
        },
        {
            "bufferView" : 10,
            "componentType" : 5126,
            "count" : 896,
            "type" : "VEC2"
        },
        {
            "bufferView" : 11,
            "componentType" : 5123,
            "count" : 3060,
            "type" : "SCALAR"
        },
        {
            "bufferView" : 12,
            "componentType" : 5126,
            "count" : 72,
            "max" : [
                -102.25054931640625,
                0.7857613563537598,
                -4.107806205749512
            ],
            "min" : [
                -102.8582992553711,
                -3.945842742919922,
                -7.660114288330078
            ],
            "type" : "VEC3"
        },
        {
            "bufferView" : 13,
            "componentType" : 5126,
            "count" : 72,
            "type" : "VEC3"
        },
        {
            "bufferView" : 14,
            "componentType" : 5126,
            "count" : 72,
            "type" : "VEC2"
        },
        {
            "bufferView" : 15,
            "componentType" : 5123,
            "count" : 132,
            "type" : "SCALAR"
        },
        {
            "bufferView" : 16,
            "componentType" : 5126,
            "count" : 216,
            "max" : [
                -101.38143920898438,
                4.945363998413086,
                -0.09276784211397171
            ],
            "min" : [
                -104.20845794677734,
                -24.100570678710938,
                -11.231700897216797
            ],
            "type" : "VEC3"
        },
        {
            "bufferView" : 17,
            "componentType" : 5126,
            "count" : 216,
            "type" : "VEC3"
        },
        {
            "bufferView" : 18,
            "componentType" : 5126,
            "count" : 216,
            "type" : "VEC2"
        },
        {
            "bufferView" : 19,
            "componentType" : 5123,
            "count" : 420,
            "type" : "SCALAR"
        }
    ],
    "bufferViews" : [
        {
            "buffer" : 0,
            "byteLength" : 1200,
            "byteOffset" : 0
        },
        {
            "buffer" : 0,
            "byteLength" : 1200,
            "byteOffset" : 1200
        },
        {
            "buffer" : 0,
            "byteLength" : 800,
            "byteOffset" : 2400
        },
        {
            "buffer" : 0,
            "byteLength" : 384,
            "byteOffset" : 3200
        },
        {
            "buffer" : 0,
            "byteLength" : 288,
            "byteOffset" : 3584
        },
        {
            "buffer" : 0,
            "byteLength" : 288,
            "byteOffset" : 3872
        },
        {
            "buffer" : 0,
            "byteLength" : 192,
            "byteOffset" : 4160
        },
        {
            "buffer" : 0,
            "byteLength" : 72,
            "byteOffset" : 4352
        },
        {
            "buffer" : 0,
            "byteLength" : 10752,
            "byteOffset" : 4424
        },
        {
            "buffer" : 0,
            "byteLength" : 10752,
            "byteOffset" : 15176
        },
        {
            "buffer" : 0,
            "byteLength" : 7168,
            "byteOffset" : 25928
        },
        {
            "buffer" : 0,
            "byteLength" : 6120,
            "byteOffset" : 33096
        },
        {
            "buffer" : 0,
            "byteLength" : 864,
            "byteOffset" : 39216
        },
        {
            "buffer" : 0,
            "byteLength" : 864,
            "byteOffset" : 40080
        },
        {
            "buffer" : 0,
            "byteLength" : 576,
            "byteOffset" : 40944
        },
        {
            "buffer" : 0,
            "byteLength" : 264,
            "byteOffset" : 41520
        },
        {
            "buffer" : 0,
            "byteLength" : 2592,
            "byteOffset" : 41784
        },
        {
            "buffer" : 0,
            "byteLength" : 2592,
            "byteOffset" : 44376
        },
        {
            "buffer" : 0,
            "byteLength" : 1728,
            "byteOffset" : 46968
        },
        {
            "buffer" : 0,
            "byteLength" : 840,
            "byteOffset" : 48696
        }
    ],
    "buffers" : [
        {
            "byteLength" : 49536,
            "uri" : "data:application/octet-stream;base64,"
        }
    ]
}
