{
    "asset" : {
        "generator" : "Khronos glTF Blender I/O v1.1.45",
        "version" : "2.0"
    },
    "scene" : 0,
    "scenes" : [
        {
            "name" : "Scene",
            "nodes" : [
                0,
                1,
                2,
                3,
                4,
                5,
                6,
                7,
                8,
                9,
                10,
                11,
                12,
                13,
                14,
                15,
                16,
                17,
                18,
                21
            ]
        }
    ],
    "nodes" : [
        {
            "name" : "Light",
            "rotation" : [
                0.16907575726509094,
                0.7558803558349609,
                -0.27217137813568115,
                0.570947527885437
            ],
            "translation" : [
                4.076245307922363,
                5.903861999511719,
                -1.0054539442062378
            ]
        },
        {
            "name" : "Camera",
            "rotation" : [
                0.483536034822464,
                0.33687159419059753,
                -0.20870360732078552,
                0.7804827094078064
            ],
            "translation" : [
                7.358891487121582,
                4.958309173583984,
                6.925790786743164
            ]
        },
        {
            "name" : "transform19"
        },
        {
            "name" : "transform20"
        },
        {
            "name" : "transform18"
        },
        {
            "name" : "transform11"
        },
        {
            "name" : "transform13"
        },
        {
            "name" : "transform12"
        },
        {
            "name" : "transform15"
        },
        {
            "name" : "transform14"
        },
        {
            "name" : "transform16"
        },
        {
            "name" : "transform21"
        },
        {
            "name" : "transform22"
        },
        {
            "name" : "transform23"
        },
        {
            "name" : "transform24"
        },
        {
            "name" : "transform25"
        },
        {
            "name" : "transform10"
        },
        {
            "name" : "transform17"
        },
        {
            "name" : "pasted__transform10"
        },
        {
            "mesh" : 0,
            "name" : "polySurface195"
        },
        {
            "name" : "transform26"
        },
        {
            "children" : [
                19,
                20
            ],
            "name" : "polySurface185",
            "rotation" : [
                0.7071068286895752,
                0,
                0,
                0.7071067094802856
            ],
            "scale" : [
                0.009999999776482582,
                0.009999999776482582,
                0.009999999776482582
            ],
            "translation" : [
                0,
                0,
                0.453348845243454
            ]
        }
    ],
    "materials" : [
        {
            "doubleSided" : true,
            "emissiveFactor" : [
                0,
                0,
                0
            ],
            "name" : "lambert2.001",
            "pbrMetallicRoughness" : {
                "baseColorFactor" : [
                    0.23076923191547394,
                    0.23076923191547394,
                    0.23076923191547394,
                    1
                ],
                "metallicFactor" : 0,
                "roughnessFactor" : 0.5527864098548889
            }
        },
        {
            "doubleSided" : true,
            "emissiveFactor" : [
                0.1809433251619339,
                0.47858893871307373,
                0.5714285969734192
            ],
            "name" : "pasted__Neo_Blue.001",
            "pbrMetallicRoughness" : {
                "baseColorFactor" : [
                    0.5,
                    0.5,
                    0.5,
                    1
                ],
                "metallicFactor" : 0,
                "roughnessFactor" : 0.5527864098548889
            }
        },
        {
            "doubleSided" : true,
            "emissiveFactor" : [
                0,
                0,
                0
            ],
            "name" : "pasted__pipe2.001",
            "pbrMetallicRoughness" : {
                "baseColorFactor" : [
                    1,
                    1,
                    1,
                    1
                ],
                "metallicFactor" : 0,
                "roughnessFactor" : 0.5527864098548889
            }
        },
        {
            "doubleSided" : true,
            "emissiveFactor" : [
                0.9685999751091003,
                0.14499999582767487,
                0.5214999914169312
            ],
            "name" : "pasted__Neo_Red.001",
            "pbrMetallicRoughness" : {
                "baseColorFactor" : [
                    0.5,
                    0.5,
                    0.5,
                    1
                ],
                "metallicFactor" : 0,
                "roughnessFactor" : 0.5527864098548889
            }
        },
        {
            "doubleSided" : true,
            "emissiveFactor" : [
                0.1809433251619339,
                0.47858893871307373,
                0.5714285969734192
            ],
            "name" : "pasted__pasted__Neo_Blue.001",
            "pbrMetallicRoughness" : {
                "baseColorFactor" : [
                    0.5,
                    0.5,
                    0.5,
                    1
                ],
                "metallicFactor" : 0,
                "roughnessFactor" : 0.5527864098548889
            }
        },
        {
            "doubleSided" : true,
            "emissiveFactor" : [
                0,
                0,
                0
            ],
            "name" : "pipe2.001",
            "pbrMetallicRoughness" : {
                "baseColorFactor" : [
                    1,
                    1,
                    1,
                    1
                ],
                "metallicFactor" : 0,
                "roughnessFactor" : 0.5527864098548889
            }
        }
    ],
    "meshes" : [
        {
            "name" : "Mesh.017",
            "primitives" : [
                {
                    "attributes" : {
                        "POSITION" : 0,
                        "NORMAL" : 1,
                        "TEXCOORD_0" : 2
                    },
                    "indices" : 3,
                    "material" : 0
                },
                {
                    "attributes" : {
                        "POSITION" : 4,
                        "NORMAL" : 5,
                        "TEXCOORD_0" : 6
                    },
                    "indices" : 7,
                    "material" : 1
                },
                {
                    "attributes" : {
                        "POSITION" : 8,
                        "NORMAL" : 9,
                        "TEXCOORD_0" : 10
                    },
                    "indices" : 11,
                    "material" : 2
                },
                {
                    "attributes" : {
                        "POSITION" : 12,
                        "NORMAL" : 13,
                        "TEXCOORD_0" : 14
                    },
                    "indices" : 15,
                    "material" : 3
                },
                {
                    "attributes" : {
                        "POSITION" : 16,
                        "NORMAL" : 17,
                        "TEXCOORD_0" : 18
                    },
                    "indices" : 19,
                    "material" : 4
                },
                {
                    "attributes" : {
                        "POSITION" : 20,
                        "NORMAL" : 21,
                        "TEXCOORD_0" : 22
                    },
                    "indices" : 23,
                    "material" : 5
                }
            ]
        }
    ],
    "accessors" : [
        {
            "bufferView" : 0,
            "componentType" : 5126,
            "count" : 573,
            "max" : [
                29.313833236694336,
                -42.456642150878906,
                0.6146411895751953
            ],
            "min" : [
                26.28304672241211,
                -68.4212875366211,
                -12.105910301208496
            ],
            "type" : "VEC3"
        },
        {
            "bufferView" : 1,
            "componentType" : 5126,
            "count" : 573,
            "type" : "VEC3"
        },
        {
            "bufferView" : 2,
            "componentType" : 5126,
            "count" : 573,
            "type" : "VEC2"
        },
        {
            "bufferView" : 3,
            "componentType" : 5123,
            "count" : 2388,
            "type" : "SCALAR"
        },
        {
            "bufferView" : 4,
            "componentType" : 5126,
            "count" : 434,
            "max" : [
                28.893657684326172,
                -42.30900573730469,
                0.10609912872314453
            ],
            "min" : [
                27.854969024658203,
                -45.027198791503906,
                -12.093500137329102
            ],
            "type" : "VEC3"
        },
        {
            "bufferView" : 5,
            "componentType" : 5126,
            "count" : 434,
            "type" : "VEC3"
        },
        {
            "bufferView" : 6,
            "componentType" : 5126,
            "count" : 434,
            "type" : "VEC2"
        },
        {
            "bufferView" : 7,
            "componentType" : 5123,
            "count" : 2484,
            "type" : "SCALAR"
        },
        {
            "bufferView" : 8,
            "componentType" : 5126,
            "count" : 24,
            "max" : [
                28.80367660522461,
                -44.976966857910156,
                -10.758506774902344
            ],
            "min" : [
                28.558176040649414,
                -67.40690612792969,
                -11.004011154174805
            ],
            "type" : "VEC3"
        },
        {
            "bufferView" : 9,
            "componentType" : 5126,
            "count" : 24,
            "type" : "VEC3"
        },
        {
            "bufferView" : 10,
            "componentType" : 5126,
            "count" : 24,
            "type" : "VEC2"
        },
        {
            "bufferView" : 11,
            "componentType" : 5123,
            "count" : 36,
            "type" : "SCALAR"
        },
        {
            "bufferView" : 12,
            "componentType" : 5126,
            "count" : 657,
            "max" : [
                29.563013076782227,
                -42.93505096435547,
                -3.580437660217285
            ],
            "min" : [
                28.543169021606445,
                -62.943424224853516,
                -7.63963508605957
            ],
            "type" : "VEC3"
        },
        {
            "bufferView" : 13,
            "componentType" : 5126,
            "count" : 657,
            "type" : "VEC3"
        },
        {
            "bufferView" : 14,
            "componentType" : 5126,
            "count" : 657,
            "type" : "VEC2"
        },
        {
            "bufferView" : 15,
            "componentType" : 5123,
            "count" : 2952,
            "type" : "SCALAR"
        },
        {
            "bufferView" : 16,
            "componentType" : 5126,
            "count" : 410,
            "max" : [
                28.893657684326172,
                -44.90985107421875,
                -2.9362621307373047
            ],
            "min" : [
                28.45108985900879,
                -47.60456848144531,
                -8.301334381103516
            ],
            "type" : "VEC3"
        },
        {
            "bufferView" : 17,
            "componentType" : 5126,
            "count" : 410,
            "type" : "VEC3"
        },
        {
            "bufferView" : 18,
            "componentType" : 5126,
            "count" : 410,
            "type" : "VEC2"
        },
        {
            "bufferView" : 19,
            "componentType" : 5123,
            "count" : 2448,
            "type" : "SCALAR"
        },
        {
            "bufferView" : 20,
            "componentType" : 5126,
            "count" : 54,
            "max" : [
                28.803680419921875,
                -45.02094650268555,
                -0.008421897888183594
            ],
            "min" : [
                28.558181762695312,
                -59.39702606201172,
                -3.521174192428589
            ],
            "type" : "VEC3"
        },
        {
            "bufferView" : 21,
            "componentType" : 5126,
            "count" : 54,
            "type" : "VEC3"
        },
        {
            "bufferView" : 22,
            "componentType" : 5126,
            "count" : 54,
            "type" : "VEC2"
        },
        {
            "bufferView" : 23,
            "componentType" : 5123,
            "count" : 96,
            "type" : "SCALAR"
        }
    ],
    "bufferViews" : [
        {
            "buffer" : 0,
            "byteLength" : 6876,
            "byteOffset" : 0
        },
        {
            "buffer" : 0,
            "byteLength" : 6876,
            "byteOffset" : 6876
        },
        {
            "buffer" : 0,
            "byteLength" : 4584,
            "byteOffset" : 13752
        },
        {
            "buffer" : 0,
            "byteLength" : 4776,
            "byteOffset" : 18336
        },
        {
            "buffer" : 0,
            "byteLength" : 5208,
            "byteOffset" : 23112
        },
        {
            "buffer" : 0,
            "byteLength" : 5208,
            "byteOffset" : 28320
        },
        {
            "buffer" : 0,
            "byteLength" : 3472,
            "byteOffset" : 33528
        },
        {
            "buffer" : 0,
            "byteLength" : 4968,
            "byteOffset" : 37000
        },
        {
            "buffer" : 0,
            "byteLength" : 288,
            "byteOffset" : 41968
        },
        {
            "buffer" : 0,
            "byteLength" : 288,
            "byteOffset" : 42256
        },
        {
            "buffer" : 0,
            "byteLength" : 192,
            "byteOffset" : 42544
        },
        {
            "buffer" : 0,
            "byteLength" : 72,
            "byteOffset" : 42736
        },
        {
            "buffer" : 0,
            "byteLength" : 7884,
            "byteOffset" : 42808
        },
        {
            "buffer" : 0,
            "byteLength" : 7884,
            "byteOffset" : 50692
        },
        {
            "buffer" : 0,
            "byteLength" : 5256,
            "byteOffset" : 58576
        },
        {
            "buffer" : 0,
            "byteLength" : 5904,
            "byteOffset" : 63832
        },
        {
            "buffer" : 0,
            "byteLength" : 4920,
            "byteOffset" : 69736
        },
        {
            "buffer" : 0,
            "byteLength" : 4920,
            "byteOffset" : 74656
        },
        {
            "buffer" : 0,
            "byteLength" : 3280,
            "byteOffset" : 79576
        },
        {
            "buffer" : 0,
            "byteLength" : 4896,
            "byteOffset" : 82856
        },
        {
            "buffer" : 0,
            "byteLength" : 648,
            "byteOffset" : 87752
        },
        {
            "buffer" : 0,
            "byteLength" : 648,
            "byteOffset" : 88400
        },
        {
            "buffer" : 0,
            "byteLength" : 432,
            "byteOffset" : 89048
        },
        {
            "buffer" : 0,
            "byteLength" : 192,
            "byteOffset" : 89480
        }
    ],
    "buffers" : [
        {
            "byteLength" : 89672,
            "uri" : "data:application/octet-stream;base64,"
        }
    ]
}
