{
    "asset" : {
        "generator" : "Khronos glTF Blender I/O v1.1.45",
        "version" : "2.0"
    },
    "scene" : 0,
    "scenes" : [
        {
            "name" : "Scene",
            "nodes" : [
                5
            ]
        }
    ],
    "nodes" : [
        {
            "name" : "filmReels"
        },
        {
            "mesh" : 0,
            "name" : "camBody1",
            "translation" : [
                1.123971939086914,
                0.5875619649887085,
                3.846686363220215
            ]
        },
        {
            "children" : [
                1
            ],
            "name" : "mainBody",
            "translation" : [
                0,
                0,
                -0.1546821892261505
            ]
        },
        {
            "name" : "mount"
        },
        {
            "name" : "viewer",
            "rotation" : [
                0,
                -0.19177685678005219,
                0,
                0.9814385771751404
            ],
            "translation" : [
                -1.4262614250183105,
                0,
                -1.0809326171875
            ]
        },
        {
            "children" : [
                0,
                2,
                3,
                4
            ],
            "name" : "filmCamera",
            "rotation" : [
                0.7071068286895752,
                0,
                0,
                0.7071067094802856
            ],
            "scale" : [
                0.009999999776482582,
                0.009999999776482582,
                0.009999999776482582
            ]
        }
    ],
    "materials" : [
        {
            "doubleSided" : true,
            "emissiveFactor" : [
                0,
                0,
                0
            ],
            "name" : "lambert1",
            "pbrMetallicRoughness" : {
                "baseColorFactor" : [
                    0.5,
                    0.5,
                    0.5,
                    1
                ],
                "metallicFactor" : 0,
                "roughnessFactor" : 0.5527864098548889
            }
        }
    ],
    "meshes" : [
        {
            "name" : "Mesh.001",
            "primitives" : [
                {
                    "attributes" : {
                        "POSITION" : 0,
                        "NORMAL" : 1,
                        "TEXCOORD_0" : 2
                    },
                    "indices" : 3,
                    "material" : 0
                }
            ]
        }
    ],
    "accessors" : [
        {
            "bufferView" : 0,
            "componentType" : 5126,
            "count" : 4019,
            "max" : [
                8.512906074523926,
                5.378374099731445,
                3.1328649520874023
            ],
            "min" : [
                -10.40857982635498,
                -3.2752227783203125,
                -12.516843795776367
            ],
            "type" : "VEC3"
        },
        {
            "bufferView" : 1,
            "componentType" : 5126,
            "count" : 4019,
            "type" : "VEC3"
        },
        {
            "bufferView" : 2,
            "componentType" : 5126,
            "count" : 4019,
            "type" : "VEC2"
        },
        {
            "bufferView" : 3,
            "componentType" : 5123,
            "count" : 12468,
            "type" : "SCALAR"
        }
    ],
    "bufferViews" : [
        {
            "buffer" : 0,
            "byteLength" : 48228,
            "byteOffset" : 0
        },
        {
            "buffer" : 0,
            "byteLength" : 48228,
            "byteOffset" : 48228
        },
        {
            "buffer" : 0,
            "byteLength" : 32152,
            "byteOffset" : 96456
        },
        {
            "buffer" : 0,
            "byteLength" : 24936,
            "byteOffset" : 128608
        }
    ],
    "buffers" : [
        {
            "byteLength" : 153544,
            "uri" : "data:application/octet-stream;base64,"
        }
    ]
}
