{
    "asset" : {
        "generator" : "Khronos glTF Blender I/O v1.1.45",
        "version" : "2.0"
    },
    "scene" : 0,
    "scenes" : [
        {
            "name" : "Scene",
            "nodes" : [
                0,
                1,
                2,
                3,
                4,
                5,
                6,
                7,
                8
            ]
        }
    ],
    "nodes" : [
        {
            "mesh" : 0,
            "name" : "polySurface84",
            "translation" : [
                -5.2162933349609375,
                -3.67319393157959,
                6.496441841125488
            ]
        },
        {
            "mesh" : 1,
            "name" : "polySurface85",
            "translation" : [
                -5.2162933349609375,
                -3.67319393157959,
                6.496441841125488
            ]
        },
        {
            "mesh" : 2,
            "name" : "polySurface86",
            "translation" : [
                -5.2162933349609375,
                -3.67319393157959,
                6.496441841125488
            ]
        },
        {
            "mesh" : 3,
            "name" : "polySurface87",
            "translation" : [
                -5.2162933349609375,
                -3.67319393157959,
                6.496441841125488
            ]
        },
        {
            "mesh" : 4,
            "name" : "polySurface88",
            "translation" : [
                -5.2162933349609375,
                -3.67319393157959,
                6.496441841125488
            ]
        },
        {
            "mesh" : 5,
            "name" : "polySurface89",
            "translation" : [
                -5.2162933349609375,
                -3.67319393157959,
                6.496441841125488
            ]
        },
        {
            "mesh" : 6,
            "name" : "polySurface94",
            "translation" : [
                -5.2162933349609375,
                -3.67319393157959,
                6.496441841125488
            ]
        },
        {
            "mesh" : 7,
            "name" : "polySurface95",
            "translation" : [
                -5.2162933349609375,
                -3.67319393157959,
                6.496441841125488
            ]
        },
        {
            "mesh" : 8,
            "name" : "_Musical_Note_v3:_Musical_Note_v4",
            "rotation" : [
                0.5174205899238586,
                0.48195013403892517,
                -0.48195022344589233,
                0.5174204707145691
            ],
            "scale" : [
                0.004878836218267679,
                0.004878836218267679,
                0.0048788366839289665
            ]
        }
    ],
    "materials" : [
        {
            "doubleSided" : true,
            "emissiveFactor" : [
                0,
                0,
                0
            ],
            "name" : "phongE1.002",
            "pbrMetallicRoughness" : {
                "baseColorFactor" : [
                    0.05490000173449516,
                    0.05490000173449516,
                    0.05490000173449516,
                    1
                ],
                "metallicFactor" : 0.5,
                "roughnessFactor" : 0.5527864098548889
            }
        },
        {
            "doubleSided" : true,
            "emissiveFactor" : [
                0.9685999751091003,
                0.14499999582767487,
                0.5214999914169312
            ],
            "name" : "Neo_Red.003",
            "pbrMetallicRoughness" : {
                "baseColorFactor" : [
                    0.5,
                    0.5,
                    0.5,
                    1
                ],
                "metallicFactor" : 0,
                "roughnessFactor" : 0.5527864098548889
            }
        },
        {
            "doubleSided" : true,
            "emissiveFactor" : [
                0,
                0,
                0
            ],
            "name" : "lambert1.004",
            "pbrMetallicRoughness" : {
                "baseColorFactor" : [
                    0.23076923191547394,
                    0.23076923191547394,
                    0.23076923191547394,
                    1
                ],
                "metallicFactor" : 0,
                "roughnessFactor" : 0.5527864098548889
            }
        }
    ],
    "meshes" : [
        {
            "name" : "Mesh.052",
            "primitives" : [
                {
                    "attributes" : {
                        "POSITION" : 0,
                        "NORMAL" : 1,
                        "TEXCOORD_0" : 2
                    },
                    "indices" : 3,
                    "material" : 0
                }
            ]
        },
        {
            "name" : "Mesh.053",
            "primitives" : [
                {
                    "attributes" : {
                        "POSITION" : 4,
                        "NORMAL" : 5,
                        "TEXCOORD_0" : 6
                    },
                    "indices" : 7,
                    "material" : 0
                }
            ]
        },
        {
            "name" : "Mesh.054",
            "primitives" : [
                {
                    "attributes" : {
                        "POSITION" : 8,
                        "NORMAL" : 9,
                        "TEXCOORD_0" : 10
                    },
                    "indices" : 7,
                    "material" : 0
                }
            ]
        },
        {
            "name" : "Mesh.055",
            "primitives" : [
                {
                    "attributes" : {
                        "POSITION" : 11,
                        "NORMAL" : 12,
                        "TEXCOORD_0" : 13
                    },
                    "indices" : 7,
                    "material" : 0
                }
            ]
        },
        {
            "name" : "Mesh.056",
            "primitives" : [
                {
                    "attributes" : {
                        "POSITION" : 14,
                        "NORMAL" : 15,
                        "TEXCOORD_0" : 16
                    },
                    "indices" : 7,
                    "material" : 0
                }
            ]
        },
        {
            "name" : "Mesh.057",
            "primitives" : [
                {
                    "attributes" : {
                        "POSITION" : 17,
                        "NORMAL" : 18,
                        "TEXCOORD_0" : 19
                    },
                    "indices" : 20,
                    "material" : 1
                }
            ]
        },
        {
            "name" : "Mesh.061",
            "primitives" : [
                {
                    "attributes" : {
                        "POSITION" : 21,
                        "NORMAL" : 22,
                        "TEXCOORD_0" : 23
                    },
                    "indices" : 24,
                    "material" : 0
                }
            ]
        },
        {
            "name" : "Mesh.062",
            "primitives" : [
                {
                    "attributes" : {
                        "POSITION" : 25,
                        "NORMAL" : 26,
                        "TEXCOORD_0" : 27
                    },
                    "indices" : 7,
                    "material" : 0
                }
            ]
        },
        {
            "name" : "Mesh.072",
            "primitives" : [
                {
                    "attributes" : {
                        "POSITION" : 28,
                        "NORMAL" : 29,
                        "TEXCOORD_0" : 30
                    },
                    "indices" : 31,
                    "material" : 1
                },
                {
                    "attributes" : {
                        "POSITION" : 32,
                        "NORMAL" : 33,
                        "TEXCOORD_0" : 34
                    },
                    "indices" : 35,
                    "material" : 2
                }
            ]
        }
    ],
    "accessors" : [
        {
            "bufferView" : 0,
            "componentType" : 5126,
            "count" : 32,
            "max" : [
                60.68470764160156,
                -4.083470344543457,
                -14.19406509399414
            ],
            "min" : [
                60.42369842529297,
                -4.810868263244629,
                -14.408510208129883
            ],
            "type" : "VEC3"
        },
        {
            "bufferView" : 1,
            "componentType" : 5126,
            "count" : 32,
            "type" : "VEC3"
        },
        {
            "bufferView" : 2,
            "componentType" : 5126,
            "count" : 32,
            "type" : "VEC2"
        },
        {
            "bufferView" : 3,
            "componentType" : 5123,
            "count" : 60,
            "type" : "SCALAR"
        },
        {
            "bufferView" : 4,
            "componentType" : 5126,
            "count" : 24,
            "max" : [
                60.68470764160156,
                -3.966264247894287,
                -14.638184547424316
            ],
            "min" : [
                60.42369842529297,
                -7.171792507171631,
                -14.852629661560059
            ],
            "type" : "VEC3"
        },
        {
            "bufferView" : 5,
            "componentType" : 5126,
            "count" : 24,
            "type" : "VEC3"
        },
        {
            "bufferView" : 6,
            "componentType" : 5126,
            "count" : 24,
            "type" : "VEC2"
        },
        {
            "bufferView" : 7,
            "componentType" : 5123,
            "count" : 36,
            "type" : "SCALAR"
        },
        {
            "bufferView" : 8,
            "componentType" : 5126,
            "count" : 24,
            "max" : [
                60.68470764160156,
                -3.966264247894287,
                -15.138184547424316
            ],
            "min" : [
                60.42369842529297,
                -7.171792507171631,
                -15.352629661560059
            ],
            "type" : "VEC3"
        },
        {
            "bufferView" : 9,
            "componentType" : 5126,
            "count" : 24,
            "type" : "VEC3"
        },
        {
            "bufferView" : 10,
            "componentType" : 5126,
            "count" : 24,
            "type" : "VEC2"
        },
        {
            "bufferView" : 11,
            "componentType" : 5126,
            "count" : 24,
            "max" : [
                60.68470764160156,
                -3.966264247894287,
                -13.211207389831543
            ],
            "min" : [
                60.42369842529297,
                -7.171792507171631,
                -13.425652503967285
            ],
            "type" : "VEC3"
        },
        {
            "bufferView" : 12,
            "componentType" : 5126,
            "count" : 24,
            "type" : "VEC3"
        },
        {
            "bufferView" : 13,
            "componentType" : 5126,
            "count" : 24,
            "type" : "VEC2"
        },
        {
            "bufferView" : 14,
            "componentType" : 5126,
            "count" : 24,
            "max" : [
                60.68470764160156,
                -3.966264247894287,
                -13.711207389831543
            ],
            "min" : [
                60.42369842529297,
                -7.171792507171631,
                -13.925652503967285
            ],
            "type" : "VEC3"
        },
        {
            "bufferView" : 15,
            "componentType" : 5126,
            "count" : 24,
            "type" : "VEC3"
        },
        {
            "bufferView" : 16,
            "componentType" : 5126,
            "count" : 24,
            "type" : "VEC2"
        },
        {
            "bufferView" : 17,
            "componentType" : 5126,
            "count" : 24,
            "max" : [
                60.545047760009766,
                -3.777851104736328,
                -12.790043830871582
            ],
            "min" : [
                47.72715377807617,
                -4.0258331298828125,
                -13.004416465759277
            ],
            "type" : "VEC3"
        },
        {
            "bufferView" : 18,
            "componentType" : 5126,
            "count" : 24,
            "type" : "VEC3"
        },
        {
            "bufferView" : 19,
            "componentType" : 5126,
            "count" : 24,
            "type" : "VEC2"
        },
        {
            "bufferView" : 20,
            "componentType" : 5123,
            "count" : 36,
            "type" : "SCALAR"
        },
        {
            "bufferView" : 21,
            "componentType" : 5126,
            "count" : 48,
            "max" : [
                60.699615478515625,
                -3.846574306488037,
                -12.316438674926758
            ],
            "min" : [
                47.08531951904297,
                -7.345992565155029,
                -15.738216400146484
            ],
            "type" : "VEC3"
        },
        {
            "bufferView" : 22,
            "componentType" : 5126,
            "count" : 48,
            "type" : "VEC3"
        },
        {
            "bufferView" : 23,
            "componentType" : 5126,
            "count" : 48,
            "type" : "VEC2"
        },
        {
            "bufferView" : 24,
            "componentType" : 5123,
            "count" : 96,
            "type" : "SCALAR"
        },
        {
            "bufferView" : 25,
            "componentType" : 5126,
            "count" : 24,
            "max" : [
                60.68470764160156,
                -3.966264247894287,
                -12.71120834350586
            ],
            "min" : [
                60.42369842529297,
                -7.171792507171631,
                -12.925653457641602
            ],
            "type" : "VEC3"
        },
        {
            "bufferView" : 26,
            "componentType" : 5126,
            "count" : 24,
            "type" : "VEC3"
        },
        {
            "bufferView" : 27,
            "componentType" : 5126,
            "count" : 24,
            "type" : "VEC2"
        },
        {
            "bufferView" : 28,
            "componentType" : 5126,
            "count" : 11499,
            "max" : [
                2.37214732170105,
                5.462822437286377,
                4.376547336578369
            ],
            "min" : [
                -2.534618616104126,
                4.582710266113281,
                -4.707052707672119
            ],
            "type" : "VEC3"
        },
        {
            "bufferView" : 29,
            "componentType" : 5126,
            "count" : 11499,
            "type" : "VEC3"
        },
        {
            "bufferView" : 30,
            "componentType" : 5126,
            "count" : 11499,
            "type" : "VEC2"
        },
        {
            "bufferView" : 31,
            "componentType" : 5123,
            "count" : 27072,
            "type" : "SCALAR"
        },
        {
            "bufferView" : 32,
            "componentType" : 5126,
            "count" : 24,
            "max" : [
                5.268874168395996,
                5.108791828155518,
                5.130148887634277
            ],
            "min" : [
                -5.263467788696289,
                -5.423549652099609,
                -5.116996765136719
            ],
            "type" : "VEC3"
        },
        {
            "bufferView" : 33,
            "componentType" : 5126,
            "count" : 24,
            "type" : "VEC3"
        },
        {
            "bufferView" : 34,
            "componentType" : 5126,
            "count" : 24,
            "type" : "VEC2"
        },
        {
            "bufferView" : 35,
            "componentType" : 5123,
            "count" : 36,
            "type" : "SCALAR"
        }
    ],
    "bufferViews" : [
        {
            "buffer" : 0,
            "byteLength" : 384,
            "byteOffset" : 0
        },
        {
            "buffer" : 0,
            "byteLength" : 384,
            "byteOffset" : 384
        },
        {
            "buffer" : 0,
            "byteLength" : 256,
            "byteOffset" : 768
        },
        {
            "buffer" : 0,
            "byteLength" : 120,
            "byteOffset" : 1024
        },
        {
            "buffer" : 0,
            "byteLength" : 288,
            "byteOffset" : 1144
        },
        {
            "buffer" : 0,
            "byteLength" : 288,
            "byteOffset" : 1432
        },
        {
            "buffer" : 0,
            "byteLength" : 192,
            "byteOffset" : 1720
        },
        {
            "buffer" : 0,
            "byteLength" : 72,
            "byteOffset" : 1912
        },
        {
            "buffer" : 0,
            "byteLength" : 288,
            "byteOffset" : 1984
        },
        {
            "buffer" : 0,
            "byteLength" : 288,
            "byteOffset" : 2272
        },
        {
            "buffer" : 0,
            "byteLength" : 192,
            "byteOffset" : 2560
        },
        {
            "buffer" : 0,
            "byteLength" : 288,
            "byteOffset" : 2752
        },
        {
            "buffer" : 0,
            "byteLength" : 288,
            "byteOffset" : 3040
        },
        {
            "buffer" : 0,
            "byteLength" : 192,
            "byteOffset" : 3328
        },
        {
            "buffer" : 0,
            "byteLength" : 288,
            "byteOffset" : 3520
        },
        {
            "buffer" : 0,
            "byteLength" : 288,
            "byteOffset" : 3808
        },
        {
            "buffer" : 0,
            "byteLength" : 192,
            "byteOffset" : 4096
        },
        {
            "buffer" : 0,
            "byteLength" : 288,
            "byteOffset" : 4288
        },
        {
            "buffer" : 0,
            "byteLength" : 288,
            "byteOffset" : 4576
        },
        {
            "buffer" : 0,
            "byteLength" : 192,
            "byteOffset" : 4864
        },
        {
            "buffer" : 0,
            "byteLength" : 72,
            "byteOffset" : 5056
        },
        {
            "buffer" : 0,
            "byteLength" : 576,
            "byteOffset" : 5128
        },
        {
            "buffer" : 0,
            "byteLength" : 576,
            "byteOffset" : 5704
        },
        {
            "buffer" : 0,
            "byteLength" : 384,
            "byteOffset" : 6280
        },
        {
            "buffer" : 0,
            "byteLength" : 192,
            "byteOffset" : 6664
        },
        {
            "buffer" : 0,
            "byteLength" : 288,
            "byteOffset" : 6856
        },
        {
            "buffer" : 0,
            "byteLength" : 288,
            "byteOffset" : 7144
        },
        {
            "buffer" : 0,
            "byteLength" : 192,
            "byteOffset" : 7432
        },
        {
            "buffer" : 0,
            "byteLength" : 137988,
            "byteOffset" : 7624
        },
        {
            "buffer" : 0,
            "byteLength" : 137988,
            "byteOffset" : 145612
        },
        {
            "buffer" : 0,
            "byteLength" : 91992,
            "byteOffset" : 283600
        },
        {
            "buffer" : 0,
            "byteLength" : 54144,
            "byteOffset" : 375592
        },
        {
            "buffer" : 0,
            "byteLength" : 288,
            "byteOffset" : 429736
        },
        {
            "buffer" : 0,
            "byteLength" : 288,
            "byteOffset" : 430024
        },
        {
            "buffer" : 0,
            "byteLength" : 192,
            "byteOffset" : 430312
        },
        {
            "buffer" : 0,
            "byteLength" : 72,
            "byteOffset" : 430504
        }
    ],
    "buffers" : [
        {
            "byteLength" : 430576,
            "uri" : "data:application/octet-stream;base64,"
        }
    ]
}
