{
    "asset" : {
        "generator" : "Khronos glTF Blender I/O v1.1.45",
        "version" : "2.0"
    },
    "scene" : 0,
    "scenes" : [
        {
            "name" : "Scene",
            "nodes" : [
                0,
                1,
                2
            ]
        }
    ],
    "nodes" : [
        {
            "name" : "Light",
            "rotation" : [
                0.16907575726509094,
                0.7558803558349609,
                -0.27217137813568115,
                0.570947527885437
            ],
            "translation" : [
                4.076245307922363,
                5.903861999511719,
                -1.0054539442062378
            ]
        },
        {
            "name" : "Camera",
            "rotation" : [
                0.483536034822464,
                0.33687159419059753,
                -0.20870360732078552,
                0.7804827094078064
            ],
            "translation" : [
                7.358891487121582,
                4.958309173583984,
                6.925790786743164
            ]
        },
        {
            "mesh" : 0,
            "name" : "Mesh",
            "rotation" : [
                0.7071068286895752,
                0,
                0,
                0.7071067094802856
            ]
        }
    ],
    "materials" : [
        {
            "doubleSided" : true,
            "emissiveFactor" : [
                0,
                0,
                0
            ],
            "name" : "Speaker",
            "pbrMetallicRoughness" : {
                "baseColorFactor" : [
                    0.800000011920929,
                    0.800000011920929,
                    0.800000011920929,
                    1
                ],
                "metallicFactor" : 0,
                "roughnessFactor" : 0.5
            }
        },
        {
            "doubleSided" : true,
            "emissiveFactor" : [
                0,
                0,
                0
            ],
            "name" : "KAsa",
            "pbrMetallicRoughness" : {
                "baseColorFactor" : [
                    0.800000011920929,
                    0.800000011920929,
                    0.800000011920929,
                    1
                ],
                "metallicFactor" : 0,
                "roughnessFactor" : 0.5
            }
        },
        {
            "doubleSided" : true,
            "emissiveFactor" : [
                0,
                0,
                0
            ],
            "name" : "Box",
            "pbrMetallicRoughness" : {
                "baseColorFactor" : [
                    0.800000011920929,
                    0.800000011920929,
                    0.800000011920929,
                    1
                ],
                "metallicFactor" : 0,
                "roughnessFactor" : 0.5
            }
        },
        {
            "doubleSided" : true,
            "emissiveFactor" : [
                0,
                0,
                0
            ],
            "name" : "AirOut",
            "pbrMetallicRoughness" : {
                "baseColorFactor" : [
                    0.800000011920929,
                    0.800000011920929,
                    0.800000011920929,
                    1
                ],
                "metallicFactor" : 0,
                "roughnessFactor" : 0.5
            }
        },
        {
            "doubleSided" : true,
            "emissiveFactor" : [
                0,
                0,
                0
            ],
            "name" : "Kabel",
            "pbrMetallicRoughness" : {
                "baseColorFactor" : [
                    0.800000011920929,
                    0.800000011920929,
                    0.800000011920929,
                    1
                ],
                "metallicFactor" : 0,
                "roughnessFactor" : 0.5
            }
        },
        {
            "doubleSided" : true,
            "emissiveFactor" : [
                0,
                0,
                0
            ],
            "name" : "RCA",
            "pbrMetallicRoughness" : {
                "baseColorFactor" : [
                    0.800000011920929,
                    0.800000011920929,
                    0.800000011920929,
                    1
                ],
                "metallicFactor" : 0,
                "roughnessFactor" : 0.5
            }
        },
        {
            "doubleSided" : true,
            "emissiveFactor" : [
                0,
                0,
                0
            ],
            "name" : "RCA_Connector",
            "pbrMetallicRoughness" : {
                "baseColorFactor" : [
                    0.800000011920929,
                    0.800000011920929,
                    0.800000011920929,
                    1
                ],
                "metallicFactor" : 0,
                "roughnessFactor" : 0.5
            }
        }
    ],
    "meshes" : [
        {
            "name" : "Mesh",
            "primitives" : [
                {
                    "attributes" : {
                        "POSITION" : 0,
                        "NORMAL" : 1,
                        "TEXCOORD_0" : 2
                    },
                    "indices" : 3,
                    "material" : 0
                },
                {
                    "attributes" : {
                        "POSITION" : 4,
                        "NORMAL" : 5,
                        "TEXCOORD_0" : 6
                    },
                    "indices" : 7,
                    "material" : 1
                },
                {
                    "attributes" : {
                        "POSITION" : 8,
                        "NORMAL" : 9,
                        "TEXCOORD_0" : 10
                    },
                    "indices" : 11,
                    "material" : 2
                },
                {
                    "attributes" : {
                        "POSITION" : 12,
                        "NORMAL" : 13,
                        "TEXCOORD_0" : 14
                    },
                    "indices" : 15,
                    "material" : 3
                },
                {
                    "attributes" : {
                        "POSITION" : 16,
                        "NORMAL" : 17,
                        "TEXCOORD_0" : 18
                    },
                    "indices" : 19,
                    "material" : 4
                },
                {
                    "attributes" : {
                        "POSITION" : 20,
                        "NORMAL" : 21,
                        "TEXCOORD_0" : 22
                    },
                    "indices" : 23,
                    "material" : 5
                },
                {
                    "attributes" : {
                        "POSITION" : 24,
                        "NORMAL" : 25,
                        "TEXCOORD_0" : 26
                    },
                    "indices" : 27,
                    "material" : 6
                }
            ]
        }
    ],
    "accessors" : [
        {
            "bufferView" : 0,
            "componentType" : 5126,
            "count" : 1184,
            "max" : [
                0.3250020742416382,
                0.4121359586715698,
                0.5221257209777832
            ],
            "min" : [
                -0.3249979019165039,
                0.27462297677993774,
                -0.5578532218933105
            ],
            "type" : "VEC3"
        },
        {
            "bufferView" : 1,
            "componentType" : 5126,
            "count" : 1184,
            "type" : "VEC3"
        },
        {
            "bufferView" : 2,
            "componentType" : 5126,
            "count" : 1184,
            "type" : "VEC2"
        },
        {
            "bufferView" : 3,
            "componentType" : 5123,
            "count" : 3750,
            "type" : "SCALAR"
        },
        {
            "bufferView" : 4,
            "componentType" : 5126,
            "count" : 374,
            "max" : [
                0.30012208223342896,
                0.47787296772003174,
                0.4973817467689514
            ],
            "min" : [
                -0.3001179099082947,
                0.3858729600906372,
                -0.5505262613296509
            ],
            "type" : "VEC3"
        },
        {
            "bufferView" : 5,
            "componentType" : 5126,
            "count" : 374,
            "type" : "VEC3"
        },
        {
            "bufferView" : 6,
            "componentType" : 5126,
            "count" : 374,
            "type" : "VEC2"
        },
        {
            "bufferView" : 7,
            "componentType" : 5123,
            "count" : 1590,
            "type" : "SCALAR"
        },
        {
            "bufferView" : 8,
            "componentType" : 5126,
            "count" : 304,
            "max" : [
                0.41000208258628845,
                0.38687294721603394,
                0.6484057903289795
            ],
            "min" : [
                -0.4099979102611542,
                -0.43312662839889526,
                -0.6765942573547363
            ],
            "type" : "VEC3"
        },
        {
            "bufferView" : 9,
            "componentType" : 5126,
            "count" : 304,
            "type" : "VEC3"
        },
        {
            "bufferView" : 10,
            "componentType" : 5126,
            "count" : 304,
            "type" : "VEC2"
        },
        {
            "bufferView" : 11,
            "componentType" : 5123,
            "count" : 822,
            "type" : "SCALAR"
        },
        {
            "bufferView" : 12,
            "componentType" : 5126,
            "count" : 128,
            "max" : [
                0.07659576833248138,
                -0.19312703609466553,
                0.4935927391052246
            ],
            "min" : [
                -0.0765916258096695,
                -0.44812652468681335,
                0.3544527292251587
            ],
            "type" : "VEC3"
        },
        {
            "bufferView" : 13,
            "componentType" : 5126,
            "count" : 128,
            "type" : "VEC3"
        },
        {
            "bufferView" : 14,
            "componentType" : 5126,
            "count" : 128,
            "type" : "VEC2"
        },
        {
            "bufferView" : 15,
            "componentType" : 5123,
            "count" : 384,
            "type" : "SCALAR"
        },
        {
            "bufferView" : 16,
            "componentType" : 5126,
            "count" : 433,
            "max" : [
                0.01289107371121645,
                -0.4160158932209015,
                0.6979997158050537
            ],
            "min" : [
                -0.182779923081398,
                -1.1623350381851196,
                0.3080207407474518
            ],
            "type" : "VEC3"
        },
        {
            "bufferView" : 17,
            "componentType" : 5126,
            "count" : 433,
            "type" : "VEC3"
        },
        {
            "bufferView" : 18,
            "componentType" : 5126,
            "count" : 433,
            "type" : "VEC2"
        },
        {
            "bufferView" : 19,
            "componentType" : 5123,
            "count" : 1398,
            "type" : "SCALAR"
        },
        {
            "bufferView" : 20,
            "componentType" : 5126,
            "count" : 140,
            "max" : [
                0.03557967394590378,
                -1.1372261047363281,
                0.8191477060317993
            ],
            "min" : [
                -0.03557172417640686,
                -1.278223991394043,
                0.6747907400131226
            ],
            "type" : "VEC3"
        },
        {
            "bufferView" : 21,
            "componentType" : 5126,
            "count" : 140,
            "type" : "VEC3"
        },
        {
            "bufferView" : 22,
            "componentType" : 5126,
            "count" : 140,
            "type" : "VEC2"
        },
        {
            "bufferView" : 23,
            "componentType" : 5123,
            "count" : 360,
            "type" : "SCALAR"
        },
        {
            "bufferView" : 24,
            "componentType" : 5126,
            "count" : 196,
            "max" : [
                0.02836107276380062,
                -1.2008260488510132,
                0.8465536832809448
            ],
            "min" : [
                -0.02835252694785595,
                -1.3032690286636353,
                0.7425637245178223
            ],
            "type" : "VEC3"
        },
        {
            "bufferView" : 25,
            "componentType" : 5126,
            "count" : 196,
            "type" : "VEC3"
        },
        {
            "bufferView" : 26,
            "componentType" : 5126,
            "count" : 196,
            "type" : "VEC2"
        },
        {
            "bufferView" : 27,
            "componentType" : 5123,
            "count" : 534,
            "type" : "SCALAR"
        }
    ],
    "bufferViews" : [
        {
            "buffer" : 0,
            "byteLength" : 14208,
            "byteOffset" : 0
        },
        {
            "buffer" : 0,
            "byteLength" : 14208,
            "byteOffset" : 14208
        },
        {
            "buffer" : 0,
            "byteLength" : 9472,
            "byteOffset" : 28416
        },
        {
            "buffer" : 0,
            "byteLength" : 7500,
            "byteOffset" : 37888
        },
        {
            "buffer" : 0,
            "byteLength" : 4488,
            "byteOffset" : 45388
        },
        {
            "buffer" : 0,
            "byteLength" : 4488,
            "byteOffset" : 49876
        },
        {
            "buffer" : 0,
            "byteLength" : 2992,
            "byteOffset" : 54364
        },
        {
            "buffer" : 0,
            "byteLength" : 3180,
            "byteOffset" : 57356
        },
        {
            "buffer" : 0,
            "byteLength" : 3648,
            "byteOffset" : 60536
        },
        {
            "buffer" : 0,
            "byteLength" : 3648,
            "byteOffset" : 64184
        },
        {
            "buffer" : 0,
            "byteLength" : 2432,
            "byteOffset" : 67832
        },
        {
            "buffer" : 0,
            "byteLength" : 1644,
            "byteOffset" : 70264
        },
        {
            "buffer" : 0,
            "byteLength" : 1536,
            "byteOffset" : 71908
        },
        {
            "buffer" : 0,
            "byteLength" : 1536,
            "byteOffset" : 73444
        },
        {
            "buffer" : 0,
            "byteLength" : 1024,
            "byteOffset" : 74980
        },
        {
            "buffer" : 0,
            "byteLength" : 768,
            "byteOffset" : 76004
        },
        {
            "buffer" : 0,
            "byteLength" : 5196,
            "byteOffset" : 76772
        },
        {
            "buffer" : 0,
            "byteLength" : 5196,
            "byteOffset" : 81968
        },
        {
            "buffer" : 0,
            "byteLength" : 3464,
            "byteOffset" : 87164
        },
        {
            "buffer" : 0,
            "byteLength" : 2796,
            "byteOffset" : 90628
        },
        {
            "buffer" : 0,
            "byteLength" : 1680,
            "byteOffset" : 93424
        },
        {
            "buffer" : 0,
            "byteLength" : 1680,
            "byteOffset" : 95104
        },
        {
            "buffer" : 0,
            "byteLength" : 1120,
            "byteOffset" : 96784
        },
        {
            "buffer" : 0,
            "byteLength" : 720,
            "byteOffset" : 97904
        },
        {
            "buffer" : 0,
            "byteLength" : 2352,
            "byteOffset" : 98624
        },
        {
            "buffer" : 0,
            "byteLength" : 2352,
            "byteOffset" : 100976
        },
        {
            "buffer" : 0,
            "byteLength" : 1568,
            "byteOffset" : 103328
        },
        {
            "buffer" : 0,
            "byteLength" : 1068,
            "byteOffset" : 104896
        }
    ],
    "buffers" : [
        {
            "byteLength" : 105964,
            "uri" : "data:application/octet-stream;base64,"
        }
    ]
}
