{
    "asset" : {
        "generator" : "Khronos glTF Blender I/O v1.1.45",
        "version" : "2.0"
    },
    "scene" : 0,
    "scenes" : [
        {
            "name" : "Scene",
            "nodes" : [
                0,
                1,
                2,
                3,
                4,
                5
            ]
        }
    ],
    "nodes" : [
        {
            "name" : "back",
            "rotation" : [
                1,
                0,
                0,
                -1.3435885648505064e-07
            ],
            "scale" : [
                0.009999999776482582,
                0.009999999776482582,
                0.009999999776482582
            ],
            "translation" : [
                0,
                0,
                -10.00100040435791
            ]
        },
        {
            "name" : "back.001",
            "rotation" : [
                1,
                0,
                0,
                -1.3435885648505064e-07
            ],
            "scale" : [
                0.009999999776482582,
                0.009999999776482582,
                0.009999999776482582
            ],
            "translation" : [
                0,
                0,
                -10.00100040435791
            ]
        },
        {
            "name" : "back.002",
            "rotation" : [
                1,
                0,
                0,
                -1.3435885648505064e-07
            ],
            "scale" : [
                0.009999999776482582,
                0.009999999776482582,
                0.009999999776482582
            ],
            "translation" : [
                0,
                0,
                -10.00100040435791
            ]
        },
        {
            "name" : "back.003",
            "rotation" : [
                -0.7071065902709961,
                0,
                0,
                0.7071069478988647
            ],
            "scale" : [
                0.009999999776482582,
                0.010000000707805157,
                0.010000000707805157
            ],
            "translation" : [
                0,
                0,
                -10.001001358032227
            ]
        },
        {
            "name" : "back.004",
            "rotation" : [
                -0.7071065902709961,
                0,
                0,
                0.7071069478988647
            ],
            "scale" : [
                0.009999999776482582,
                0.010000000707805157,
                0.010000000707805157
            ],
            "translation" : [
                0,
                0,
                -10.001001358032227
            ]
        },
        {
            "mesh" : 0,
            "name" : "pCube83.001",
            "scale" : [
                0.22736141085624695,
                0.09718674421310425,
                0.003102182410657406
            ],
            "translation" : [
                0.40380799770355225,
                0.03815652057528496,
                -0.09782581776380539
            ]
        }
    ],
    "materials" : [
        {
            "doubleSided" : true,
            "emissiveFactor" : [
                0,
                0,
                0
            ],
            "name" : "lambert1.007",
            "pbrMetallicRoughness" : {
                "baseColorFactor" : [
                    0.23076923191547394,
                    0.23076923191547394,
                    0.23076923191547394,
                    1
                ],
                "metallicFactor" : 0,
                "roughnessFactor" : 0.5527864098548889
            }
        }
    ],
    "meshes" : [
        {
            "name" : "Mesh.026",
            "primitives" : [
                {
                    "attributes" : {
                        "POSITION" : 0,
                        "NORMAL" : 1,
                        "TEXCOORD_0" : 2
                    },
                    "indices" : 3,
                    "material" : 0
                }
            ]
        }
    ],
    "accessors" : [
        {
            "bufferView" : 0,
            "componentType" : 5126,
            "count" : 24,
            "max" : [
                0.5,
                0.5,
                0.5
            ],
            "min" : [
                -0.5,
                -0.5,
                -0.5
            ],
            "type" : "VEC3"
        },
        {
            "bufferView" : 1,
            "componentType" : 5126,
            "count" : 24,
            "type" : "VEC3"
        },
        {
            "bufferView" : 2,
            "componentType" : 5126,
            "count" : 24,
            "type" : "VEC2"
        },
        {
            "bufferView" : 3,
            "componentType" : 5123,
            "count" : 36,
            "type" : "SCALAR"
        }
    ],
    "bufferViews" : [
        {
            "buffer" : 0,
            "byteLength" : 288,
            "byteOffset" : 0
        },
        {
            "buffer" : 0,
            "byteLength" : 288,
            "byteOffset" : 288
        },
        {
            "buffer" : 0,
            "byteLength" : 192,
            "byteOffset" : 576
        },
        {
            "buffer" : 0,
            "byteLength" : 72,
            "byteOffset" : 768
        }
    ],
    "buffers" : [
        {
            "byteLength" : 840,
            "uri" : "data:application/octet-stream;base64,"
        }
    ]
}
