{
    "asset" : {
        "generator" : "Khronos glTF Blender I/O v1.1.45",
        "version" : "2.0"
    },
    "scene" : 0,
    "scenes" : [
        {
            "name" : "Scene",
            "nodes" : [
                1
            ]
        }
    ],
    "nodes" : [
        {
            "mesh" : 0,
            "name" : "pasted__pasted__pCube14",
            "rotation" : [
                0.018199561163783073,
                0.3182203769683838,
                0.024085022509098053,
                0.9475361108779907
            ],
            "scale" : [
                0.5696093440055847,
                0.5696093440055847,
                0.5696093440055847
            ],
            "translation" : [
                -0.01858803629875183,
                -0.022045791149139404,
                12.118345260620117
            ]
        },
        {
            "children" : [
                0
            ],
            "name" : "fontvert",
            "rotation" : [
                1,
                0,
                0,
                -1.3435885648505064e-07
            ],
            "scale" : [
                0.009999999776482582,
                0.009999999776482582,
                0.009999999776482582
            ]
        }
    ],
    "materials" : [
        {
            "doubleSided" : true,
            "emissiveFactor" : [
                0,
                0,
                0
            ],
            "name" : "lambert1.008",
            "pbrMetallicRoughness" : {
                "baseColorFactor" : [
                    0.23076923191547394,
                    0.23076923191547394,
                    0.23076923191547394,
                    1
                ],
                "metallicFactor" : 0,
                "roughnessFactor" : 0.5527864098548889
            }
        },
        {
            "doubleSided" : true,
            "emissiveFactor" : [
                0.15934066474437714,
                0,
                0.15823432803153992
            ],
            "name" : "lambert13.001",
            "pbrMetallicRoughness" : {
                "baseColorFactor" : [
                    1,
                    1,
                    1,
                    1
                ],
                "metallicFactor" : 0,
                "roughnessFactor" : 0.5527864098548889
            }
        },
        {
            "doubleSided" : true,
            "emissiveFactor" : [
                0,
                0,
                0
            ],
            "name" : "phongE1.001",
            "pbrMetallicRoughness" : {
                "baseColorFactor" : [
                    0.05490000173449516,
                    0.05490000173449516,
                    0.05490000173449516,
                    1
                ],
                "metallicFactor" : 0.5,
                "roughnessFactor" : 0.5527864098548889
            }
        }
    ],
    "meshes" : [
        {
            "name" : "Mesh.027",
            "primitives" : [
                {
                    "attributes" : {
                        "POSITION" : 0,
                        "NORMAL" : 1,
                        "TEXCOORD_0" : 2
                    },
                    "indices" : 3,
                    "material" : 0
                },
                {
                    "attributes" : {
                        "POSITION" : 4,
                        "NORMAL" : 5,
                        "TEXCOORD_0" : 6
                    },
                    "indices" : 7,
                    "material" : 1
                },
                {
                    "attributes" : {
                        "POSITION" : 8,
                        "NORMAL" : 9,
                        "TEXCOORD_0" : 10
                    },
                    "indices" : 11,
                    "material" : 2
                }
            ]
        }
    ],
    "accessors" : [
        {
            "bufferView" : 0,
            "componentType" : 5126,
            "count" : 1620,
            "max" : [
                12.763629913330078,
                3.346372365951538,
                -15.80408763885498
            ],
            "min" : [
                11.042266845703125,
                1.3841807842254639,
                -18.381328582763672
            ],
            "type" : "VEC3"
        },
        {
            "bufferView" : 1,
            "componentType" : 5126,
            "count" : 1620,
            "type" : "VEC3"
        },
        {
            "bufferView" : 2,
            "componentType" : 5126,
            "count" : 1620,
            "type" : "VEC2"
        },
        {
            "bufferView" : 3,
            "componentType" : 5123,
            "count" : 1704,
            "type" : "SCALAR"
        },
        {
            "bufferView" : 4,
            "componentType" : 5126,
            "count" : 36,
            "max" : [
                13.702987670898438,
                2.0808541774749756,
                -15.159605979919434
            ],
            "min" : [
                11.997077941894531,
                -4.236682891845703,
                -18.70102310180664
            ],
            "type" : "VEC3"
        },
        {
            "bufferView" : 5,
            "componentType" : 5126,
            "count" : 36,
            "type" : "VEC3"
        },
        {
            "bufferView" : 6,
            "componentType" : 5126,
            "count" : 36,
            "type" : "VEC2"
        },
        {
            "bufferView" : 7,
            "componentType" : 5123,
            "count" : 36,
            "type" : "SCALAR"
        },
        {
            "bufferView" : 8,
            "componentType" : 5126,
            "count" : 3638,
            "max" : [
                13.573295593261719,
                2.3837802410125732,
                -14.806078910827637
            ],
            "min" : [
                12.126766204833984,
                -4.539608001708984,
                -19.054550170898438
            ],
            "type" : "VEC3"
        },
        {
            "bufferView" : 9,
            "componentType" : 5126,
            "count" : 3638,
            "type" : "VEC3"
        },
        {
            "bufferView" : 10,
            "componentType" : 5126,
            "count" : 3638,
            "type" : "VEC2"
        },
        {
            "bufferView" : 11,
            "componentType" : 5123,
            "count" : 3756,
            "type" : "SCALAR"
        }
    ],
    "bufferViews" : [
        {
            "buffer" : 0,
            "byteLength" : 19440,
            "byteOffset" : 0
        },
        {
            "buffer" : 0,
            "byteLength" : 19440,
            "byteOffset" : 19440
        },
        {
            "buffer" : 0,
            "byteLength" : 12960,
            "byteOffset" : 38880
        },
        {
            "buffer" : 0,
            "byteLength" : 3408,
            "byteOffset" : 51840
        },
        {
            "buffer" : 0,
            "byteLength" : 432,
            "byteOffset" : 55248
        },
        {
            "buffer" : 0,
            "byteLength" : 432,
            "byteOffset" : 55680
        },
        {
            "buffer" : 0,
            "byteLength" : 288,
            "byteOffset" : 56112
        },
        {
            "buffer" : 0,
            "byteLength" : 72,
            "byteOffset" : 56400
        },
        {
            "buffer" : 0,
            "byteLength" : 43656,
            "byteOffset" : 56472
        },
        {
            "buffer" : 0,
            "byteLength" : 43656,
            "byteOffset" : 100128
        },
        {
            "buffer" : 0,
            "byteLength" : 29104,
            "byteOffset" : 143784
        },
        {
            "buffer" : 0,
            "byteLength" : 7512,
            "byteOffset" : 172888
        }
    ],
    "buffers" : [
        {
            "byteLength" : 180400,
            "uri" : "data:application/octet-stream;base64,"
        }
    ]
}
