{
    "asset" : {
        "generator" : "Khronos glTF Blender I/O v1.1.45",
        "version" : "2.0"
    },
    "scene" : 0,
    "scenes" : [
        {
            "name" : "Scene",
            "nodes" : [
                0,
                2
            ]
        }
    ],
    "nodes" : [
        {
            "name" : "left",
            "rotation" : [
                0.7071068286895752,
                0,
                -0.7071068286895752,
                -4.75030326185788e-08
            ],
            "scale" : [
                0.010000000707805157,
                0.010000000707805157,
                0.009999999776482582
            ],
            "translation" : [
                -10.000999450683594,
                0,
                0
            ]
        },
        {
            "mesh" : 0,
            "name" : "polySurface108",
            "rotation" : [
                0,
                0.49113842844963074,
                0,
                0.8710815906524658
            ]
        },
        {
            "children" : [
                1
            ],
            "name" : "group63",
            "rotation" : [
                1,
                0,
                0,
                -1.3435885648505064e-07
            ],
            "scale" : [
                0.009999999776482582,
                0.009999999776482582,
                0.009999999776482582
            ]
        }
    ],
    "materials" : [
        {
            "doubleSided" : true,
            "emissiveFactor" : [
                0,
                0,
                0
            ],
            "name" : "lambert2",
            "pbrMetallicRoughness" : {
                "baseColorFactor" : [
                    0.23076923191547394,
                    0.23076923191547394,
                    0.23076923191547394,
                    1
                ],
                "metallicFactor" : 0,
                "roughnessFactor" : 0.5527864098548889
            }
        },
        {
            "doubleSided" : true,
            "emissiveFactor" : [
                0.25686368346214294,
                0.6793954968452454,
                0.811188817024231
            ],
            "name" : "Neo_Blue",
            "pbrMetallicRoughness" : {
                "baseColorFactor" : [
                    0.5,
                    0.5,
                    0.5,
                    1
                ],
                "metallicFactor" : 0,
                "roughnessFactor" : 0.5527864098548889
            }
        }
    ],
    "meshes" : [
        {
            "name" : "Mesh.181",
            "primitives" : [
                {
                    "attributes" : {
                        "POSITION" : 0,
                        "NORMAL" : 1,
                        "TEXCOORD_0" : 2
                    },
                    "indices" : 3,
                    "material" : 0
                },
                {
                    "attributes" : {
                        "POSITION" : 4,
                        "NORMAL" : 5,
                        "TEXCOORD_0" : 6
                    },
                    "indices" : 7,
                    "material" : 1
                }
            ]
        }
    ],
    "accessors" : [
        {
            "bufferView" : 0,
            "componentType" : 5126,
            "count" : 74,
            "max" : [
                1.1545974016189575,
                1.3714871406555176,
                1.9460924863815308
            ],
            "min" : [
                -1.0270870923995972,
                -1.3714871406555176,
                -1.895560383796692
            ],
            "type" : "VEC3"
        },
        {
            "bufferView" : 1,
            "componentType" : 5126,
            "count" : 74,
            "type" : "VEC3"
        },
        {
            "bufferView" : 2,
            "componentType" : 5126,
            "count" : 74,
            "type" : "VEC2"
        },
        {
            "bufferView" : 3,
            "componentType" : 5123,
            "count" : 84,
            "type" : "SCALAR"
        },
        {
            "bufferView" : 4,
            "componentType" : 5126,
            "count" : 30,
            "max" : [
                0.9377585649490356,
                1.059624195098877,
                1.5974663496017456
            ],
            "min" : [
                -0.2528904378414154,
                -1.059624195098877,
                -1.4068280458450317
            ],
            "type" : "VEC3"
        },
        {
            "bufferView" : 5,
            "componentType" : 5126,
            "count" : 30,
            "type" : "VEC3"
        },
        {
            "bufferView" : 6,
            "componentType" : 5126,
            "count" : 30,
            "type" : "VEC2"
        },
        {
            "bufferView" : 7,
            "componentType" : 5123,
            "count" : 36,
            "type" : "SCALAR"
        }
    ],
    "bufferViews" : [
        {
            "buffer" : 0,
            "byteLength" : 888,
            "byteOffset" : 0
        },
        {
            "buffer" : 0,
            "byteLength" : 888,
            "byteOffset" : 888
        },
        {
            "buffer" : 0,
            "byteLength" : 592,
            "byteOffset" : 1776
        },
        {
            "buffer" : 0,
            "byteLength" : 168,
            "byteOffset" : 2368
        },
        {
            "buffer" : 0,
            "byteLength" : 360,
            "byteOffset" : 2536
        },
        {
            "buffer" : 0,
            "byteLength" : 360,
            "byteOffset" : 2896
        },
        {
            "buffer" : 0,
            "byteLength" : 240,
            "byteOffset" : 3256
        },
        {
            "buffer" : 0,
            "byteLength" : 72,
            "byteOffset" : 3496
        }
    ],
    "buffers" : [
        {
            "byteLength" : 3568,
            "uri" : "data:application/octet-stream;base64,"
        }
    ]
}
