{
    "asset" : {
        "generator" : "Khronos glTF Blender I/O v1.1.45",
        "version" : "2.0"
    },
    "scene" : 0,
    "scenes" : [
        {
            "name" : "Scene",
            "nodes" : [
                0
            ]
        }
    ],
    "nodes" : [
        {
            "mesh" : 0,
            "name" : "pCylinder33",
            "rotation" : [
                0.7093734741210938,
                -0.7048327922821045,
                0,
                1.6403455447289161e-06
            ],
            "scale" : [
                0.001218015211634338,
                0.06910344213247299,
                0.0012180149788036942
            ]
        }
    ],
    "materials" : [
        {
            "doubleSided" : true,
            "emissiveFactor" : [
                0.25686368346214294,
                0.6793954968452454,
                0.811188817024231
            ],
            "name" : "Neo_Blue.002",
            "pbrMetallicRoughness" : {
                "baseColorFactor" : [
                    0.5,
                    0.5,
                    0.5,
                    1
                ],
                "metallicFactor" : 0,
                "roughnessFactor" : 0.5527864098548889
            }
        },
        {
            "doubleSided" : true,
            "emissiveFactor" : [
                0,
                0,
                0
            ],
            "name" : "lambert1.003",
            "pbrMetallicRoughness" : {
                "baseColorFactor" : [
                    0.23076923191547394,
                    0.23076923191547394,
                    0.23076923191547394,
                    1
                ],
                "metallicFactor" : 0,
                "roughnessFactor" : 0.5527864098548889
            }
        },
        {
            "doubleSided" : true,
            "emissiveFactor" : [
                0.9685999751091003,
                0.14499999582767487,
                0.5214999914169312
            ],
            "name" : "Neo_Red.002",
            "pbrMetallicRoughness" : {
                "baseColorFactor" : [
                    0.5,
                    0.5,
                    0.5,
                    1
                ],
                "metallicFactor" : 0,
                "roughnessFactor" : 0.5527864098548889
            }
        },
        {
            "doubleSided" : true,
            "emissiveFactor" : [
                0.28021979331970215,
                0,
                0.2515435218811035
            ],
            "name" : "blinn2.001",
            "pbrMetallicRoughness" : {
                "baseColorFactor" : [
                    1,
                    1,
                    1,
                    1
                ],
                "metallicFactor" : 0.16483516991138458,
                "roughnessFactor" : 0.8377809524536133
            }
        }
    ],
    "meshes" : [
        {
            "name" : "Mesh.047",
            "primitives" : [
                {
                    "attributes" : {
                        "POSITION" : 0,
                        "NORMAL" : 1,
                        "TEXCOORD_0" : 2
                    },
                    "indices" : 3,
                    "material" : 0
                },
                {
                    "attributes" : {
                        "POSITION" : 4,
                        "NORMAL" : 5,
                        "TEXCOORD_0" : 6
                    },
                    "indices" : 7,
                    "material" : 1
                },
                {
                    "attributes" : {
                        "POSITION" : 8,
                        "NORMAL" : 9,
                        "TEXCOORD_0" : 10
                    },
                    "indices" : 11,
                    "material" : 2
                },
                {
                    "attributes" : {
                        "POSITION" : 12,
                        "NORMAL" : 13,
                        "TEXCOORD_0" : 14
                    },
                    "indices" : 15,
                    "material" : 3
                }
            ]
        }
    ],
    "accessors" : [
        {
            "bufferView" : 0,
            "componentType" : 5126,
            "count" : 419,
            "max" : [
                15.61086368560791,
                0.27126556634902954,
                25.691316604614258
            ],
            "min" : [
                -29.87912368774414,
                -1.4823122024536133,
                -23.478792190551758
            ],
            "type" : "VEC3"
        },
        {
            "bufferView" : 1,
            "componentType" : 5126,
            "count" : 419,
            "type" : "VEC3"
        },
        {
            "bufferView" : 2,
            "componentType" : 5126,
            "count" : 419,
            "type" : "VEC2"
        },
        {
            "bufferView" : 3,
            "componentType" : 5123,
            "count" : 900,
            "type" : "SCALAR"
        },
        {
            "bufferView" : 4,
            "componentType" : 5126,
            "count" : 702,
            "max" : [
                14.064483642578125,
                0.4004172682762146,
                28.282339096069336
            ],
            "min" : [
                -14.89477825164795,
                -0.42736294865608215,
                -29.971757888793945
            ],
            "type" : "VEC3"
        },
        {
            "bufferView" : 5,
            "componentType" : 5126,
            "count" : 702,
            "type" : "VEC3"
        },
        {
            "bufferView" : 6,
            "componentType" : 5126,
            "count" : 702,
            "type" : "VEC2"
        },
        {
            "bufferView" : 7,
            "componentType" : 5123,
            "count" : 732,
            "type" : "SCALAR"
        },
        {
            "bufferView" : 8,
            "componentType" : 5126,
            "count" : 70,
            "max" : [
                -9.677637100219727,
                0.36896365880966187,
                23.295564651489258
            ],
            "min" : [
                -17.021751403808594,
                -0.1002298891544342,
                -18.22351837158203
            ],
            "type" : "VEC3"
        },
        {
            "bufferView" : 9,
            "componentType" : 5126,
            "count" : 70,
            "type" : "VEC3"
        },
        {
            "bufferView" : 10,
            "componentType" : 5126,
            "count" : 70,
            "type" : "VEC2"
        },
        {
            "bufferView" : 11,
            "componentType" : 5123,
            "count" : 72,
            "type" : "SCALAR"
        },
        {
            "bufferView" : 12,
            "componentType" : 5126,
            "count" : 138,
            "max" : [
                -0.6767275333404541,
                -0.11225274205207825,
                7.641635894775391
            ],
            "min" : [
                -10.81640911102295,
                -0.3517940938472748,
                -1.2387313842773438
            ],
            "type" : "VEC3"
        },
        {
            "bufferView" : 13,
            "componentType" : 5126,
            "count" : 138,
            "type" : "VEC3"
        },
        {
            "bufferView" : 14,
            "componentType" : 5126,
            "count" : 138,
            "type" : "VEC2"
        },
        {
            "bufferView" : 15,
            "componentType" : 5123,
            "count" : 144,
            "type" : "SCALAR"
        }
    ],
    "bufferViews" : [
        {
            "buffer" : 0,
            "byteLength" : 5028,
            "byteOffset" : 0
        },
        {
            "buffer" : 0,
            "byteLength" : 5028,
            "byteOffset" : 5028
        },
        {
            "buffer" : 0,
            "byteLength" : 3352,
            "byteOffset" : 10056
        },
        {
            "buffer" : 0,
            "byteLength" : 1800,
            "byteOffset" : 13408
        },
        {
            "buffer" : 0,
            "byteLength" : 8424,
            "byteOffset" : 15208
        },
        {
            "buffer" : 0,
            "byteLength" : 8424,
            "byteOffset" : 23632
        },
        {
            "buffer" : 0,
            "byteLength" : 5616,
            "byteOffset" : 32056
        },
        {
            "buffer" : 0,
            "byteLength" : 1464,
            "byteOffset" : 37672
        },
        {
            "buffer" : 0,
            "byteLength" : 840,
            "byteOffset" : 39136
        },
        {
            "buffer" : 0,
            "byteLength" : 840,
            "byteOffset" : 39976
        },
        {
            "buffer" : 0,
            "byteLength" : 560,
            "byteOffset" : 40816
        },
        {
            "buffer" : 0,
            "byteLength" : 144,
            "byteOffset" : 41376
        },
        {
            "buffer" : 0,
            "byteLength" : 1656,
            "byteOffset" : 41520
        },
        {
            "buffer" : 0,
            "byteLength" : 1656,
            "byteOffset" : 43176
        },
        {
            "buffer" : 0,
            "byteLength" : 1104,
            "byteOffset" : 44832
        },
        {
            "buffer" : 0,
            "byteLength" : 288,
            "byteOffset" : 45936
        }
    ],
    "buffers" : [
        {
            "byteLength" : 46224,
            "uri" : "data:application/octet-stream;base64,"
        }
    ]
}
