{
    "asset" : {
        "generator" : "Khronos glTF Blender I/O v1.1.45",
        "version" : "2.0"
    },
    "scene" : 0,
    "scenes" : [
        {
            "name" : "Scene",
            "nodes" : [
                1
            ]
        }
    ],
    "nodes" : [
        {
            "mesh" : 0,
            "name" : "polySurface170",
            "scale" : [
                0.27002304792404175,
                3.372962713241577,
                1
            ],
            "translation" : [
                0,
                0.8940520882606506,
                0
            ]
        },
        {
            "children" : [
                0
            ],
            "name" : "group80",
            "rotation" : [
                0.7071068286895752,
                0,
                0,
                0.7071067094802856
            ],
            "scale" : [
                0.009999999776482582,
                0.008435840718448162,
                0.009999999776482582
            ]
        }
    ],
    "materials" : [
        {
            "doubleSided" : true,
            "emissiveFactor" : [
                0,
                0,
                0
            ],
            "name" : "lambert1.002",
            "pbrMetallicRoughness" : {
                "baseColorFactor" : [
                    0.23076923191547394,
                    0.23076923191547394,
                    0.23076923191547394,
                    1
                ],
                "metallicFactor" : 0,
                "roughnessFactor" : 0.5527864098548889
            }
        },
        {
            "doubleSided" : true,
            "emissiveFactor" : [
                0.25686368346214294,
                0.6793954968452454,
                0.811188817024231
            ],
            "name" : "Neo_Blue.001",
            "pbrMetallicRoughness" : {
                "baseColorFactor" : [
                    0.5,
                    0.5,
                    0.5,
                    1
                ],
                "metallicFactor" : 0,
                "roughnessFactor" : 0.5527864098548889
            }
        },
        {
            "doubleSided" : true,
            "emissiveFactor" : [
                0.9685999751091003,
                0.14499999582767487,
                0.5214999914169312
            ],
            "name" : "Neo_Red.001",
            "pbrMetallicRoughness" : {
                "baseColorFactor" : [
                    0.5,
                    0.5,
                    0.5,
                    1
                ],
                "metallicFactor" : 0,
                "roughnessFactor" : 0.5527864098548889
            }
        }
    ],
    "meshes" : [
        {
            "name" : "Mesh.041",
            "primitives" : [
                {
                    "attributes" : {
                        "POSITION" : 0,
                        "NORMAL" : 1,
                        "TEXCOORD_0" : 2
                    },
                    "indices" : 3,
                    "material" : 0
                },
                {
                    "attributes" : {
                        "POSITION" : 4,
                        "NORMAL" : 5,
                        "TEXCOORD_0" : 6
                    },
                    "indices" : 7,
                    "material" : 1
                },
                {
                    "attributes" : {
                        "POSITION" : 8,
                        "NORMAL" : 9,
                        "TEXCOORD_0" : 10
                    },
                    "indices" : 11,
                    "material" : 2
                }
            ]
        }
    ],
    "accessors" : [
        {
            "bufferView" : 0,
            "componentType" : 5126,
            "count" : 282,
            "max" : [
                1.0544706583023071,
                0.23043271899223328,
                0.6867123246192932
            ],
            "min" : [
                -3.023339033126831,
                -0.7695677280426025,
                -1.4747074842453003
            ],
            "type" : "VEC3"
        },
        {
            "bufferView" : 1,
            "componentType" : 5126,
            "count" : 282,
            "type" : "VEC3"
        },
        {
            "bufferView" : 2,
            "componentType" : 5126,
            "count" : 282,
            "type" : "VEC2"
        },
        {
            "bufferView" : 3,
            "componentType" : 5123,
            "count" : 600,
            "type" : "SCALAR"
        },
        {
            "bufferView" : 4,
            "componentType" : 5126,
            "count" : 114,
            "max" : [
                1.2881979942321777,
                0.240258127450943,
                0.35035210847854614
            ],
            "min" : [
                -2.0974202156066895,
                -0.7793936729431152,
                -0.5283167362213135
            ],
            "type" : "VEC3"
        },
        {
            "bufferView" : 5,
            "componentType" : 5126,
            "count" : 114,
            "type" : "VEC3"
        },
        {
            "bufferView" : 6,
            "componentType" : 5126,
            "count" : 114,
            "type" : "VEC2"
        },
        {
            "bufferView" : 7,
            "componentType" : 5123,
            "count" : 228,
            "type" : "SCALAR"
        },
        {
            "bufferView" : 8,
            "componentType" : 5126,
            "count" : 40,
            "max" : [
                1.2881979942321777,
                0.240258127450943,
                -0.3034660220146179
            ],
            "min" : [
                -2.0974202156066895,
                -0.7793936729431152,
                -0.3554754853248596
            ],
            "type" : "VEC3"
        },
        {
            "bufferView" : 9,
            "componentType" : 5126,
            "count" : 40,
            "type" : "VEC3"
        },
        {
            "bufferView" : 10,
            "componentType" : 5126,
            "count" : 40,
            "type" : "VEC2"
        },
        {
            "bufferView" : 11,
            "componentType" : 5123,
            "count" : 84,
            "type" : "SCALAR"
        }
    ],
    "bufferViews" : [
        {
            "buffer" : 0,
            "byteLength" : 3384,
            "byteOffset" : 0
        },
        {
            "buffer" : 0,
            "byteLength" : 3384,
            "byteOffset" : 3384
        },
        {
            "buffer" : 0,
            "byteLength" : 2256,
            "byteOffset" : 6768
        },
        {
            "buffer" : 0,
            "byteLength" : 1200,
            "byteOffset" : 9024
        },
        {
            "buffer" : 0,
            "byteLength" : 1368,
            "byteOffset" : 10224
        },
        {
            "buffer" : 0,
            "byteLength" : 1368,
            "byteOffset" : 11592
        },
        {
            "buffer" : 0,
            "byteLength" : 912,
            "byteOffset" : 12960
        },
        {
            "buffer" : 0,
            "byteLength" : 456,
            "byteOffset" : 13872
        },
        {
            "buffer" : 0,
            "byteLength" : 480,
            "byteOffset" : 14328
        },
        {
            "buffer" : 0,
            "byteLength" : 480,
            "byteOffset" : 14808
        },
        {
            "buffer" : 0,
            "byteLength" : 320,
            "byteOffset" : 15288
        },
        {
            "buffer" : 0,
            "byteLength" : 168,
            "byteOffset" : 15608
        }
    ],
    "buffers" : [
        {
            "byteLength" : 15776,
            "uri" : "data:application/octet-stream;base64,"
        }
    ]
}
