<?xml version="1.0" encoding="utf-8"?>
<!-- Generator: Adobe Illustrator 24.0.0, SVG Export Plug-In . SVG Version: 6.00 Build 0)  -->
<svg version="1.1" id="Calque_1" xmlns="http://www.w3.org/2000/svg" xmlns:xlink="http://www.w3.org/1999/xlink" x="0px" y="0px"
	 viewBox="0 0 2019 1186.9" style="enable-background:new 0 0 2019 1186.9;" xml:space="preserve">
<style type="text/css">
	.st0{fill:#D31A35;}
</style>
<title>Plan de travail 1</title>
<path d="M1547,419.2v316.2c0.5,46.6-36.9,84.8-83.5,85.3s-84.8-36.9-85.3-83.5c0-0.6,0-1.2,0-1.7V435.3
	c-7.7-136.2-114.4-209.9-235.4-209.9S915,299,907.3,435.3V736c0.5,46.3-36.7,84.2-83,84.7s-84.2-36.7-84.7-83c0-0.6,0-1.2,0-1.7
	V435.3c-7.7-136.3-114.4-210-235.4-210s-227.7,73.7-235.4,210v361H100V419.2C113.2,185.3,296.3,58.8,504.2,58.8
	c126.5,0,243.8,46.9,319.3,136.3c75.5-89.4,192.8-136.3,319.3-136.3C1350.6,58.8,1533.7,185.3,1547,419.2z"/>
<path d="M419.8,767.7V451.5c-0.5-46.6,36.9-84.8,83.5-85.3s84.8,36.9,85.3,83.5c0,0.6,0,1.2,0,1.7v300.1
	c7.7,136.4,114.4,210,235.4,210s227.7-73.7,235.4-209.9V451c-0.5-46.3,36.7-84.2,83-84.7s84.2,36.7,84.7,83c0,0.6,0,1.2,0,1.7v300.7
	c7.7,136.2,114.4,209.9,235.4,209.9s227.7-73.7,235.4-209.9v-361h168.7v377c-13.2,233.9-196.4,360.4-404.2,360.4
	c-126.5,0-243.8-46.9-319.3-136.3c-75.5,89.4-192.8,136.3-319.3,136.3C616.1,1128.1,433,1001.6,419.8,767.7z"/>
<path class="st0" d="M1866.8,265.5H1698V111.7h168.8V265.5z M1880.1,59.5h-195.5c-21.5,0-38.9,17.5-38.9,38.9l0,0v180.4
	c0,21.5,17.4,38.9,38.9,38.9l0,0h195.5c21.5,0,38.9-17.4,38.9-38.9V98.4C1919.1,76.9,1901.7,59.5,1880.1,59.5
	C1880.2,59.5,1880.1,59.5,1880.1,59.5L1880.1,59.5z"/>
</svg>
