<svg id="Calque_1" data-name="Calque 1" xmlns="http://www.w3.org/2000/svg" viewBox="0 0 2019.02 1186.9"><defs><style>.cls-1{fill:#fff;}</style></defs><title>logo_MMI_stroke</title><path class="cls-1" d="M1157.41,9c56.94,0,111.62,8.59,162.52,25.53C1371.52,51.71,1417.64,77,1457,109.58c84.78,70.29,133.21,170.81,140.06,290.71V751a84.67,84.67,0,1,1-169.33,0V417.37c-9.45-166.81-142.56-241.48-270.3-241.48s-260.85,74.67-270.3,241.48V751.61a84.08,84.08,0,1,1-168.15,0V417.37c-9.45-166.81-142.56-241.48-270.3-241.48s-260.85,74.67-270.3,241.48V809.51H9V400.29c6.84-119.9,55.27-220.41,140.06-290.71,39.35-32.62,85.47-57.87,137.06-75C337,17.59,391.7,9,448.64,9a534.6,534.6,0,0,1,101.12,9.51A477.29,477.29,0,0,1,643.59,46.7,422.61,422.61,0,0,1,726.8,93a384.39,384.39,0,0,1,69.34,64l6.88,8.15L809.9,157a384.75,384.75,0,0,1,69.34-64A422.9,422.9,0,0,1,962.45,46.7a477.59,477.59,0,0,1,93.84-28.19A534.52,534.52,0,0,1,1157.41,9m0-9C1017,0,886.78,52,803,151.23,719.27,52,589,0,448.64,0,217.94,0,14.69,140.4,0,400V818.51H187.33V417.88c8.56-151.22,126.94-233,261.31-233s252.75,81.77,261.31,233V751.61a93.08,93.08,0,1,0,186.15,0V417.88c8.56-151.22,126.93-233,261.31-233s252.75,81.77,261.31,233V751a93.67,93.67,0,1,0,187.33,0V400C1591.35,140.4,1388.11,0,1157.41,0Z"/><path class="cls-1" d="M1158,351.21a84.16,84.16,0,0,1,84.07,84.08V769.52c9.45,166.82,142.56,241.49,270.3,241.49s260.85-74.67,270.3-241.49V377.39H1952V786.61c-6.84,119.9-55.27,220.41-140.06,290.7-39.35,32.63-85.47,57.88-137.06,75-50.9,16.94-105.58,25.54-162.52,25.54a534.6,534.6,0,0,1-101.12-9.52,476.62,476.62,0,0,1-93.83-28.19,421.59,421.59,0,0,1-83.21-46.34,384,384,0,0,1-69.34-64l-6.88-8.15-6.88,8.15a384.34,384.34,0,0,1-69.34,64,421.88,421.88,0,0,1-83.21,46.34,476.92,476.92,0,0,1-93.84,28.19,534.52,534.52,0,0,1-101.12,9.52c-56.94,0-111.62-8.6-162.52-25.54-51.59-17.17-97.71-42.42-137.06-75C419.25,1007,370.82,906.51,364,786.61V435.88a84.67,84.67,0,1,1,169.33,0V769.52C542.76,936.34,675.87,1011,803.61,1011s260.85-74.67,270.3-241.49V435.29A84.17,84.17,0,0,1,1158,351.21m0-9a93.08,93.08,0,0,0-93.08,93.08V769c-8.56,151.22-126.93,233-261.31,233S550.86,920.24,542.3,769V435.88a93.67,93.67,0,1,0-187.33,0v351c14.7,259.63,217.94,400,448.64,400,140.41,0,270.63-52,354.39-151.23,83.75,99.23,214,151.23,354.38,151.23,230.7,0,433.95-140.4,448.64-400V368.39H1773.69V769c-8.56,151.22-126.94,233-261.31,233s-252.75-81.77-261.31-233V435.29A93.07,93.07,0,0,0,1158,342.21Z"/><path class="cls-1" d="M1975.84,10.77A33.22,33.22,0,0,1,2009,44V244.27a33.22,33.22,0,0,1-33.18,33.18h-217a33.22,33.22,0,0,1-33.18-33.18V44a33.22,33.22,0,0,1,33.18-33.18h217M1763.69,239.45H1971V48.77H1763.69V239.45M1975.84.77h-217A43.18,43.18,0,0,0,1715.69,44V244.27a43.18,43.18,0,0,0,43.18,43.18h217A43.18,43.18,0,0,0,2019,244.27V44A43.18,43.18,0,0,0,1975.84.77ZM1773.69,229.45V58.77H1961V229.45Z"/></svg>